<?xml version="1.0" encoding="UTF-8" standalone="no"?>
<!-- Generator: Adobe Illustrator 19.1.0, SVG Export Plug-In . SVG Version: 6.00 Build 0)  -->

<svg
   xmlns:dc="http://purl.org/dc/elements/1.1/"
   xmlns:cc="http://creativecommons.org/ns#"
   xmlns:rdf="http://www.w3.org/1999/02/22-rdf-syntax-ns#"
   xmlns:svg="http://www.w3.org/2000/svg"
   xmlns="http://www.w3.org/2000/svg"
   xmlns:sodipodi="http://sodipodi.sourceforge.net/DTD/sodipodi-0.dtd"
   xmlns:inkscape="http://www.inkscape.org/namespaces/inkscape"
   version="1.1"
   x="0px"
   y="0px"
   viewBox="57 41.5 107.27221 91.092514"
   xml:space="preserve"
   id="svg2"
   inkscape:version="0.48.4 r9939"
   width="100%"
   height="100%"
   sodipodi:docname="jkacademylogo (copy).svg"><metadata
     id="metadata240"><rdf:RDF><cc:Work
         rdf:about=""><dc:format>image/svg+xml</dc:format><dc:type
           rdf:resource="http://purl.org/dc/dcmitype/StillImage" /><dc:title></dc:title></cc:Work></rdf:RDF></metadata><defs
     id="defs238" /><sodipodi:namedview
     pagecolor="#ffffff"
     bordercolor="#666666"
     borderopacity="1"
     objecttolerance="10"
     gridtolerance="10"
     guidetolerance="10"
     inkscape:pageopacity="0"
     inkscape:pageshadow="2"
     inkscape:window-width="1307"
     inkscape:window-height="744"
     id="namedview236"
     showgrid="false"
     fit-margin-top="0"
     fit-margin-left="0"
     fit-margin-right="0"
     fit-margin-bottom="0"
     inkscape:zoom="1.3676815"
     inkscape:cx="191.09335"
     inkscape:cy="-36.859325"
     inkscape:window-x="59"
     inkscape:window-y="24"
     inkscape:window-maximized="1"
     inkscape:current-layer="g50" /><style
     type="text/css"
     id="style4">
	.st0{fill:#FFFFFF;}
</style><g
     id="Camada_2"
     transform="translate(83.612185,103.31441)" /><g
     id="_x3C_Logo_x3E__1_"
     transform="translate(30.237185,120.13119)"><g
       id="g50"
       transform="matrix(1.4211,0,0,1.4211,58.000904,-99.01634)"><path
         style="fill:#ffffff"
         inkscape:connector-curvature="0"
         id="path52"
         d="m 43.46881,55.744626 0,-7.8 c 0.3,-0.3 0.6,-0.6 0.9,-1 v 0.6 h 0.5 v -1.1 h 0 c 7.40001,-7.900001 10.50001,-15.700001 7.50001,-20.900001 -2.7,-4.8 -9.90001,-6.5 -19.90001,-4.9 l 3,1.7 c 7.6,-0.8 13.10001,0.6 15.10001,4.2 2.2,4 -0.2,10.2 -5.70001,16.6 v -0.9 h -0.5 v 1.1 h 0.4 c -0.4,0.5 -0.9,1 -1.3,1.5 l 0,-9.3 c 0,-0.1 0.1,-2.6 -1.5,-4.9 -1.6,-2.2 -3.4,-3.5 -3.5,-3.6 l -17.699997,-10.1 c -0.1,0 -2.200001,-1 -5.300001,-1.1 h -0.3 c -2.9,0 -5.1,1 -5.2,1.1 -1.8,1 -17.5,10.4 -18.5,11.4 -1.3,1.3 -1.8,2.1 -1.8,2.1 0,0.1 -1,1.2 -1.9,4.4 l -0.1,2.2 c 0,4.5 0.1,18.500001 0.1,19.400001 0.1,1.9 0.8,3.3 1.8,5.1 1,1.6 1.3,1.8 1.8,2.4 0.2,0.2 0.4,0.4 0.8,0.8 0.6,0.6 3.5,2.4 6.8,4.4 -0.4,0.1 -0.8,0.1 -1.2,0.2 l -0.9,-0.5 -0.3,0.5 0.2,0.1 c -0.2,0 -0.4,0 -0.5,0.1 -7.7,0.900003 -13.3,-0.6 -15.3,-4.1 -1.9,-3.4 -0.5,-8.7 4,-14.6 0,-1.1 0,-2.2 0,-3.4 -6.4,7.5 -8.5,14.3 -5.8,19 2,3.600003 6.5,5.500003 12.9,5.500003 1.4,0 2.9,-0.1 4.4,-0.3 1.6,-0.2 3.39999996,-0.5 5.1,-0.9 3.8,2.3 7.5,4.4 8.3,4.9 0.1,0 2.3,1.3 5.6,1.3 3.2,0 5.400001,-1.1 5.400001,-1.2 0,0 17.099997,-10.500003 18.099997,-11.100003 l 0.1,-0.1 c 1.4,-1.3 1.7,-1.8 2.9,-3.6 1.2,-1.9 1.5,-5 1.5,-5.2 z m -42.79999804,13.1 c -3.89999996,-2.4 -7.19999996,-4.5 -7.79999996,-5 -0.4,-0.3 -0.7,-0.6 -0.9,-0.8 -0.5,-0.5 -0.7,-0.7 -1.7,-2.2 -1,-1.8 -1.6,-2.9 -1.6,-4.5 0,-0.9 0,-14.600001 0,-19.100001 v -1.2 c 0.2,-2.5 1.4,-4.5 1.4,-4.5 0,0 0.8,-1.3 2.1,-2.6 0.6,-0.7 11.3,-7 18.3,-11.1 0.1,0 2,-0.9 4.7,-0.9 l 0.3,-0.1 c 2.8,0 4.800001,1 4.800001,1 l 17.599997,10 c 0.3,0.2 1.9,1.5 3.3,3.4 1.4,2 1.3,4.2 1.3,4.3 l 0.1,10.2 c -4.8,5.000001 -11.4,10.000001 -18.999997,14.200001 -7.800001,4.4 -15.700001,7.5 -22.90000104,8.9 z m 35.09999804,-12.3 c -1,2 -3.7,3.1 -7.5,3.1 0.9,-0.5 1.8,-1.1 2.6,-1.7 1.9,-1.2 3.7,-2.5 5.3,-3.8 0.1,0.9 -0.1,1.7 -0.4,2.4 z m -15.199997,7.4 c -1.6,2.4 -3.500001,3.7 -5.300001,3.7 l -0.2,0 c -0.6,0 -1.2,-0.2 -1.9,-0.5 2.7,-1.1 5.1,-2.1 7.400001,-3.2 z m 17.899997,-0.2 c -1.4,0.9 -17.999997,11.000003 -17.999997,11.000003 -0.1,0 -2.100001,1 -5.100001,1 -2.9,0 -5,-1.2 -5,-1.2 -2.1,-1.2 -4.7,-2.7 -7.1,-4.2 2.9,-0.700003 5.9,-1.700003 8.9,-2.800003 0.9,0.7 2,1.1 3,1.1 0.1,0 0.1,0 0.2,0 2.6,0 5.100001,-2.2 7.000001,-5.7 0.7,-0.4 1.5,-0.8 2.199997,-1.2 0.7,-0.4 1.4,-0.8 2.1,-1.2 0.5,0 1.1,0.1 1.6,0.1 4.1,0 7.3,-1.2 8.5,-3.7 0.5,-1.1 0.7,-2.2 0.5,-3.5 2,-1.5 3.8,-3.1 5.4,-4.7 l 0,7 c 0,0 -0.3,3 -1.4,4.6 -1.2,1.7 -1.6,2.2 -2.8,3.4 z"
         class="st0" /><rect
         style="fill:#ffffff"
         id="rect54"
         height="1.1"
         width="0.5"
         class="st0"
         y="41.64463"
         x="-13.531186" /><rect
         style="fill:#ffffff"
         id="rect56"
         height="1.1"
         width="0.5"
         class="st0"
         y="43.744629"
         x="-13.531186" /><rect
         style="fill:#ffffff"
         id="rect58"
         height="1.1"
         width="0.5"
         class="st0"
         y="39.444626"
         x="-13.531186" /><polygon
         transform="translate(-83.53119,-30.155376)"
         style="fill:#ffffff"
         id="polygon60"
         points="86.9,102.9 86,102.4 85.7,102.9 86.6,103.4 "
         class="st0" /><polygon
         transform="translate(-83.53119,-30.155376)"
         style="fill:#ffffff"
         id="polygon62"
         points="88.7,103.9 87.8,103.4 87.5,103.9 88.4,104.4 "
         class="st0" /><polygon
         transform="translate(-83.53119,-30.155376)"
         style="fill:#ffffff"
         id="polygon64"
         points="85,101.8 84.1,101.3 83.8,101.8 84.7,102.3 "
         class="st0" /><rect
         style="fill:#ffffff"
         id="rect66"
         height="1.1"
         width="0.5"
         class="st0"
         y="54.344627"
         x="-13.731183" /><path
         style="fill:#ffffff"
         inkscape:connector-curvature="0"
         id="path68"
         d="m 9.768812,76.444629 -0.3,0.5 0.4,0.2 c 0.1,0.1 0.3,0.2 0.6,0.3 l 0.2,-0.6 c -0.4,-0.1 -0.6,-0.3 -0.7,-0.3 l -0.2,-0.1 z"
         class="st0" /><rect
         style="fill:#ffffff"
         id="rect70"
         height="1.1"
         width="0.5"
         class="st0"
         y="45.84462"
         x="-13.531186" /><polygon
         transform="translate(-83.53119,-30.155376)"
         style="fill:#ffffff"
         id="polygon72"
         points="92.4,106.1 91.5,105.6 91.2,106.1 92.1,106.6 "
         class="st0" /><polygon
         transform="translate(-83.53119,-30.155376)"
         style="fill:#ffffff"
         id="polygon74"
         points="90.5,105 89.6,104.5 89.3,105 90.2,105.5 "
         class="st0" /><rect
         style="fill:#ffffff"
         id="rect76"
         height="1.1"
         width="0.5"
         class="st0"
         y="52.244629"
         x="-13.531186" /><rect
         style="fill:#ffffff"
         id="rect78"
         height="1.1"
         width="0.5"
         class="st0"
         y="50.14463"
         x="-13.531186" /><rect
         style="fill:#ffffff"
         id="rect80"
         height="1.1"
         width="0.5"
         class="st0"
         y="47.944626"
         x="-13.531186" /><path
         style="fill:#ffffff"
         inkscape:connector-curvature="0"
         id="path82"
         d="m -13.131188,59.744626 0.4,-0.1 c -0.1,-0.4 -0.2,-0.7 -0.3,-1 l -0.5,0.1 c 0.1,0.3 0.3,0.6 0.4,1 z"
         class="st0" /><path
         style="fill:#ffffff"
         inkscape:connector-curvature="0"
         id="path84"
         d="m -11.731188,61.444626 c -0.2,-0.3 -0.3,-0.6 -0.5,-0.9 l -0.5,0.2 c 0.1,0.3 0.3,0.6 0.5,0.9 l 0.5,-0.2 z"
         class="st0" /><polygon
         transform="translate(-83.53119,-30.155376)"
         style="fill:#ffffff"
         id="polygon86"
         points="70.3,65.4 69.8,65.4 69.8,66.5 70.3,66.5 70.3,65.6 "
         class="st0" /><polygon
         transform="translate(-83.53119,-30.155376)"
         style="fill:#ffffff"
         id="polygon88"
         points="83.4,51.5 83.7,52 84.6,51.5 84.3,51 "
         class="st0" /><path
         style="fill:#ffffff"
         inkscape:connector-curvature="0"
         id="path90"
         d="m 14.268812,14.844625 v -0.5 c -0.4,0.1 -0.8,0.1 -1.1,0.2 l 0.1,0.5 c 0.3,-0.1 0.7,-0.1 1,-0.2 z"
         class="st0" /><path
         style="fill:#ffffff"
         inkscape:connector-curvature="0"
         id="path92"
         d="m 16.368812,14.944625 0.1,-0.4 c -0.3,-0.1 -0.7,-0.1 -1,-0.1 h -0.1 v 0.5 h 0.1 c 0.3,0 0.6,0 0.9,0 z"
         class="st0" /><path
         style="fill:#ffffff"
         inkscape:connector-curvature="0"
         id="path94"
         d="m 20.568813,15.344625 c -0.2,-0.1 -0.5,-0.3 -1,-0.4 l -0.2,0.5 c 0.5,0.2 0.8,0.3 1,0.4 l 0.2,-0.5 z"
         class="st0" /><path
         style="fill:#ffffff"
         inkscape:connector-curvature="0"
         id="path96"
         d="m 18.568812,14.744625 c -0.4,-0.1 -0.7,-0.1 -1.1,-0.2 v 0.5 c 0.3,0.1 0.7,0.1 1,0.2 l 0.1,-0.5 z"
         class="st0" /><path
         style="fill:#ffffff"
         inkscape:connector-curvature="0"
         id="path98"
         d="m 9.968812,15.944625 0,0 0.2,-0.1 c 0,0 0,-0.1 0,-0.2 h -0.1 l -0.1,-0.3 -1,0.5 0.3,0.5 0.7,-0.4 z"
         class="st0" /><path
         style="fill:#ffffff"
         inkscape:connector-curvature="0"
         id="path100"
         d="m 12.068812,15.244625 -0.1,-0.5 c -0.3,0.1 -0.7,0.2 -1,0.3 l 0.2,0.5 c 0.4,-0.2 0.7,-0.2 0.9,-0.3 z"
         class="st0" /><polygon
         transform="translate(-83.53119,-30.155376)"
         style="fill:#ffffff"
         id="polygon102"
         points="104.8,46.5 105.8,47.1 106,46.6 105.1,46 "
         class="st0" /><polygon
         transform="translate(-83.53119,-30.155376)"
         style="fill:#ffffff"
         id="polygon104"
         points="92,47.2 91.7,46.7 90.8,47.2 90.9,47.4 91,47.6 "
         class="st0" /><polygon
         transform="translate(-83.53119,-30.155376)"
         style="fill:#ffffff"
         id="polygon106"
         points="114.1,51.8 115,52.3 115.3,51.8 114.4,51.3 "
         class="st0" /><polygon
         transform="translate(-83.53119,-30.155376)"
         style="fill:#ffffff"
         id="polygon108"
         points="110.4,49.7 111.3,50.2 111.6,49.7 110.7,49.2 "
         class="st0" /><polygon
         transform="translate(-83.53119,-30.155376)"
         style="fill:#ffffff"
         id="polygon110"
         points="112.3,50.8 113.2,51.3 113.5,50.8 112.6,50.3 "
         class="st0" /><polygon
         transform="translate(-83.53119,-30.155376)"
         style="fill:#ffffff"
         id="polygon112"
         points="108.6,48.7 109.5,49.2 109.8,48.7 108.9,48.2 "
         class="st0" /><polygon
         transform="translate(-83.53119,-30.155376)"
         style="fill:#ffffff"
         id="polygon114"
         points="106.7,47.6 107.6,48.1 107.9,47.6 107,47.1 "
         class="st0" /><path
         style="fill:#ffffff"
         inkscape:connector-curvature="0"
         id="path116"
         d="m -8.031188,26.744625 -0.3,-0.4 c -0.4,0.2 -0.7,0.4 -0.9,0.6 l 0.3,0.4 c 0.2,-0.1 0.5,-0.3 0.9,-0.6 z"
         class="st0" /><path
         style="fill:#ffffff"
         inkscape:connector-curvature="0"
         id="path118"
         d="m -9.731188,28.144625 -0.4,-0.4 c -0.2,0.3 -0.5,0.5 -0.7,0.8 l 0.4,0.3 c 0.2,-0.3 0.5,-0.5 0.7,-0.7 z"
         class="st0" /><rect
         style="fill:#ffffff"
         id="rect120"
         height="1.1"
         width="0.5"
         class="st0"
         y="37.34462"
         x="-13.531186" /><path
         style="fill:#ffffff"
         inkscape:connector-curvature="0"
         id="path122"
         d="m -11.131188,29.644625 -0.4,-0.3 c -0.4,0.5 -0.6,0.9 -0.6,0.9 l 0.5,0.3 c 0,0 0.2,-0.4 0.5,-0.9 z"
         class="st0" /><path
         style="fill:#ffffff"
         inkscape:connector-curvature="0"
         id="path124"
         d="m -6.231188,25.744625 -0.3,-0.5 c -0.3,0.2 -0.6,0.4 -0.9,0.6 l 0.3,0.4 c 0.2,-0.2 0.5,-0.4 0.9,-0.5 z"
         class="st0" /><path
         style="fill:#ffffff"
         inkscape:connector-curvature="0"
         id="path126"
         d="m -12.731188,33.144625 -0.5,-0.2 c -0.1,0.4 -0.2,0.8 -0.3,1.1 l 0.5,0.2 c 0.1,-0.4 0.2,-0.7 0.3,-1.1 z"
         class="st0" /><path
         style="fill:#ffffff"
         inkscape:connector-curvature="0"
         id="path128"
         d="m -12.031188,31.244625 -0.5,-0.2 c -0.1,0.3 -0.3,0.7 -0.4,1 l 0.5,0.2 c 0.1,-0.4 0.3,-0.7 0.4,-1 z"
         class="st0" /><polygon
         transform="translate(-83.53119,-30.155376)"
         style="fill:#ffffff"
         id="polygon130"
         points="88.9,48.2 89.2,48.7 90.1,48.2 89.8,47.7 "
         class="st0" /><polygon
         transform="translate(-83.53119,-30.155376)"
         style="fill:#ffffff"
         id="polygon132"
         points="77.9,54.8 78.2,55.3 79.1,54.7 78.8,54.2 "
         class="st0" /><path
         style="fill:#ffffff"
         inkscape:connector-curvature="0"
         id="path134"
         d="m 11.568812,77.844629 c 0.3,0.1 0.6,0.2 1,0.3 l 0.2,-0.5 c -0.3,-0.1 -0.7,-0.2 -1,-0.3 l -0.2,0.5 z"
         class="st0" /><polygon
         transform="translate(-83.53119,-30.155376)"
         style="fill:#ffffff"
         id="polygon136"
         points="87,49.3 87.3,49.8 88.3,49.3 88,48.8 "
         class="st0" /><polygon
         transform="translate(-83.53119,-30.155376)"
         style="fill:#ffffff"
         id="polygon138"
         points="85.2,50.4 85.5,50.9 86.4,50.4 86.1,49.9 "
         class="st0" /><polygon
         transform="translate(-83.53119,-30.155376)"
         style="fill:#ffffff"
         id="polygon140"
         points="81.5,52.6 81.8,53.1 82.7,52.6 82.4,52.1 "
         class="st0" /><polygon
         transform="translate(-83.53119,-30.155376)"
         style="fill:#ffffff"
         id="polygon142"
         points="79.7,53.7 80,54.2 80.9,53.6 80.6,53.1 "
         class="st0" /><path
         style="fill:#ffffff"
         inkscape:connector-curvature="0"
         id="path144"
         d="m -13.231188,57.044626 v -0.5 h -0.5 v 0.5 c 0,0.2 0,0.4 0,0.6 l 0.5,-0.1 c 0,-0.2 0,-0.3 0,-0.5 z"
         class="st0" /><path
         style="fill:#ffffff"
         inkscape:connector-curvature="0"
         id="path146"
         d="m 40.86881,27.244625 c -0.3,-0.3 -0.6,-0.5 -0.8,-0.7 l -0.3,0.4 c 0.2,0.2 0.5,0.4 0.8,0.7 l 0.3,-0.4 z"
         class="st0" /><path
         style="fill:#ffffff"
         inkscape:connector-curvature="0"
         id="path148"
         d="m 43.56881,30.544625 c -0.1,-0.2 -0.3,-0.4 -0.4,-0.6 -0.1,-0.1 -0.1,-0.2 -0.2,-0.3 l -0.4,0.3 c 0.1,0.1 0.1,0.2 0.2,0.3 0.2,0.2 0.3,0.4 0.4,0.6 l 0.4,-0.3 z"
         class="st0" /><rect
         style="fill:#ffffff"
         id="rect150"
         height="1.1"
         width="0.5"
         class="st0"
         y="37.944618"
         x="44.36882" /><rect
         style="fill:#ffffff"
         id="rect152"
         height="1.1"
         width="0.5"
         class="st0"
         y="40.044624"
         x="44.36882" /><path
         style="fill:#ffffff"
         inkscape:connector-curvature="0"
         id="path154"
         d="m -6.731188,66.644626 -0.3,0.4 c 0.3,0.2 0.6,0.4 0.9,0.6 l 0.3,-0.4 c -0.3,-0.2 -0.6,-0.4 -0.9,-0.6 z"
         class="st0" /><path
         style="fill:#ffffff"
         inkscape:connector-curvature="0"
         id="path156"
         d="m 42.36881,28.844625 c -0.2,-0.3 -0.5,-0.6 -0.7,-0.8 l -0.4,0.4 c 0.2,0.3 0.5,0.5 0.7,0.8 l 0.4,-0.4 z"
         class="st0" /><path
         style="fill:#ffffff"
         inkscape:connector-curvature="0"
         id="path158"
         d="m -4.931188,67.644626 -0.3,0.5 c 0.3,0.2 0.6,0.4 0.9,0.6 l 0.3,-0.5 c -0.3,-0.2 -0.6,-0.4 -0.9,-0.6 z"
         class="st0" /><polygon
         transform="translate(-83.53119,-30.155376)"
         style="fill:#ffffff"
         id="polygon160"
         points="116.9,53.4 117.2,52.9 116.3,52.4 116,52.9 "
         class="st0" /><polygon
         transform="translate(-83.53119,-30.155376)"
         style="fill:#ffffff"
         id="polygon162"
         points="121.5,56.1 122.4,56.6 122.7,56.1 121.8,55.6 "
         class="st0" /><polygon
         transform="translate(-83.53119,-30.155376)"
         style="fill:#ffffff"
         id="polygon164"
         points="120.6,55.5 120.9,55 120,54.5 119.7,55 "
         class="st0" /><polygon
         transform="translate(-83.53119,-30.155376)"
         style="fill:#ffffff"
         id="polygon166"
         points="118.7,54.4 119,53.9 118.1,53.4 117.8,53.9 "
         class="st0" /><rect
         style="fill:#ffffff"
         id="rect168"
         height="1.1"
         width="0.5"
         class="st0"
         y="35.844627"
         x="44.268814" /><path
         style="fill:#ffffff"
         inkscape:connector-curvature="0"
         id="path170"
         d="m 42.96881,61.444626 -0.3,0.5 0.4,0.3 0.4,-0.5 c 0,-0.1 0.1,-0.3 0.2,-0.4 l -0.5,-0.3 c -0.1,0.2 -0.1,0.3 -0.2,0.4 z"
         class="st0" /><path
         style="fill:#ffffff"
         inkscape:connector-curvature="0"
         id="path172"
         d="m 43.56881,60.144626 0.5,0.2 c 0.1,-0.3 0.3,-0.7 0.4,-1 l -0.6,-0.2 c -0.1,0.4 -0.2,0.7 -0.3,1 z"
         class="st0" /><path
         style="fill:#ffffff"
         inkscape:connector-curvature="0"
         id="path174"
         d="m 44.16881,58.144626 0.5,0.1 c 0.1,-0.4 0.2,-0.7 0.2,-1 l -0.5,-0.1 c -0.1,0.3 -0.1,0.6 -0.2,1 z"
         class="st0" /><rect
         style="fill:#ffffff"
         id="rect176"
         height="1.1"
         width="0.5"
         class="st0"
         y="55.044617"
         x="44.468811" /><rect
         style="fill:#ffffff"
         id="rect178"
         height="1.1"
         width="0.5"
         class="st0"
         y="52.84462"
         x="44.468811" /><path
         style="fill:#ffffff"
         inkscape:connector-curvature="0"
         id="path180"
         d="m 40.06881,65.144626 0,0 0.2,0.5 0.2,-0.1 c 0.3,-0.3 0.5,-0.5 0.7,-0.7 l -0.4,-0.4 c -0.2,0.2 -0.5,0.5 -0.7,0.7 z"
         class="st0" /><rect
         style="fill:#ffffff"
         id="rect182"
         height="1.1"
         width="0.5"
         class="st0"
         y="48.644623"
         x="44.36882" /><path
         style="fill:#ffffff"
         inkscape:connector-curvature="0"
         id="path184"
         d="m 41.36881,63.744626 0.4,0.3 c 0.2,-0.3 0.4,-0.6 0.6,-0.8 l -0.4,-0.3 c -0.2,0.3 -0.4,0.6 -0.6,0.8 z"
         class="st0" /><path
         style="fill:#ffffff"
         inkscape:connector-curvature="0"
         id="path186"
         d="m 43.66881,31.744625 c 0.1,0.3 0.2,0.7 0.3,1 l 0.6,-0.2 c -0.1,-0.3 -0.3,-0.7 -0.4,-1 l -0.5,0.2 z"
         class="st0" /><path
         style="fill:#ffffff"
         inkscape:connector-curvature="0"
         id="path188"
         d="m 44.16881,33.844625 c 0.1,0.4 0.1,0.8 0.1,1 h 0.5 c 0,-0.2 0,-0.6 -0.1,-1.1 l -0.5,0.1 z"
         class="st0" /><rect
         style="fill:#ffffff"
         id="rect190"
         height="1.1"
         width="0.5"
         class="st0"
         y="50.744629"
         x="44.36882" /><polygon
         transform="translate(-83.53119,-30.155376)"
         style="fill:#ffffff"
         id="polygon192"
         points="119.2,98.6 118.9,98.1 118,98.7 118.3,99.1 "
         class="st0" /><polygon
         transform="translate(-83.53119,-30.155376)"
         style="fill:#ffffff"
         id="polygon194"
         points="111.9,103 111.6,102.5 110.7,103.1 111,103.6 "
         class="st0" /><polygon
         transform="translate(-83.53119,-30.155376)"
         style="fill:#ffffff"
         id="polygon196"
         points="113.7,101.9 113.4,101.4 112.5,102 112.8,102.5 "
         class="st0" /><polygon
         transform="translate(-83.53119,-30.155376)"
         style="fill:#ffffff"
         id="polygon198"
         points="115.6,100.7 115.3,100.2 114.4,100.8 114.7,101.3 "
         class="st0" /><polygon
         transform="translate(-83.53119,-30.155376)"
         style="fill:#ffffff"
         id="polygon200"
         points="117.4,99.6 117.1,99.1 116.2,99.7 116.5,100.2 "
         class="st0" /><path
         style="fill:#ffffff"
         inkscape:connector-curvature="0"
         id="path202"
         d="m 13.568812,78.344629 c 0.4,0 0.7,0.1 1.1,0.1 v -0.5 c -0.3,0 -0.7,-0.1 -1,-0.1 l -0.1,0.5 z"
         class="st0" /><polygon
         transform="translate(-83.53119,-30.155376)"
         style="fill:#ffffff"
         id="polygon204"
         points="110.1,104.1 109.8,103.6 108.9,104.2 109.2,104.7 "
         class="st0" /><path
         style="fill:#ffffff"
         inkscape:connector-curvature="0"
         id="path206"
         d="m 15.768812,77.944629 v 0.5 c 0.4,0 0.7,0 1.1,-0.1 l -0.1,-0.5 c -0.3,0.1 -0.7,0.1 -1,0.1 z"
         class="st0" /><path
         style="fill:#ffffff"
         inkscape:connector-curvature="0"
         id="path208"
         d="m -8.531188,65.444626 -0.3,0.4 c 0.2,0.1 0.5,0.3 0.9,0.6 l 0.2,-0.4 c -0.3,-0.2 -0.6,-0.4 -0.8,-0.6 z"
         class="st0" /><polygon
         transform="translate(-83.53119,-30.155376)"
         style="fill:#ffffff"
         id="polygon210"
         points="108.3,105.2 108,104.7 107.1,105.3 107.4,105.8 "
         class="st0" /><path
         style="fill:#ffffff"
         inkscape:connector-curvature="0"
         id="path212"
         d="m 19.868813,77.244629 0.2,0.5 c 0.5,-0.2 0.8,-0.3 1,-0.4 l -0.2,-0.5 c -0.2,0.1 -0.5,0.2 -1,0.4 z"
         class="st0" /><polygon
         transform="translate(-83.53119,-30.155376)"
         style="fill:#ffffff"
         id="polygon214"
         points="106.5,106.4 106.2,105.9 105.3,106.5 105.6,106.9 "
         class="st0" /><path
         style="fill:#ffffff"
         inkscape:connector-curvature="0"
         id="path216"
         d="m 17.868812,77.744629 0.1,0.5 c 0.3,-0.1 0.7,-0.1 1.000001,-0.2 l -0.1,-0.5 c -0.300001,0.1 -0.700001,0.1 -1.000001,0.2 z"
         class="st0" /><path
         style="fill:#ffffff"
         inkscape:connector-curvature="0"
         id="path218"
         d="m -11.231188,62.244626 -0.4,0.3 c 0.2,0.4 0.4,0.7 0.6,0.9 l 0.4,-0.3 c -0.2,-0.3 -0.4,-0.5 -0.6,-0.9 z"
         class="st0" /><path
         style="fill:#ffffff"
         inkscape:connector-curvature="0"
         id="path220"
         d="m -9.531188,65.044626 0.4,-0.4 c -0.2,-0.2 -0.3,-0.3 -0.4,-0.4 -0.2,-0.2 -0.3,-0.3 -0.4,-0.4 l -0.4,0.4 c 0.1,0.1 0.3,0.3 0.4,0.4 0.1,0.1 0.3,0.3 0.4,0.4 z"
         class="st0" /><polygon
         transform="translate(-83.53119,-30.155376)"
         style="fill:#ffffff"
         id="polygon222"
         points="121.1,97.4 120.8,96.9 119.9,97.5 120.1,98 "
         class="st0" /><polygon
         transform="translate(-83.53119,-30.155376)"
         style="fill:#ffffff"
         id="polygon224"
         points="122.9,96.3 122.6,95.8 121.7,96.4 122,96.9 "
         class="st0" /><path
         style="fill:#ffffff"
         inkscape:connector-curvature="0"
         id="path226"
         d="m 33.26881,45.744625 c 3.2,-4.2 4.4,-8.4 2.7,-11.4 -1.4,-2.4 -4.3,-3.5 -8.2,-3.5 -1.2,0 -2.4,0.1 -3.699997,0.3 1.199997,2.3 1.999997,4.8 2.599997,7.4 3.7,3.1 5.8,5.9 6.6,7.2 z m -5.5,-13.9 c 3.6,0 6.2,1.1 7.3,3 1.3,2.3 0.6,5.6 -1.8,9.2 -1,-1.4 -2.8,-3.5 -5.7,-6 -0.5,-2.3 -1.2,-4.3 -2,-6 0.8,-0.2 1.5,-0.2 2.2,-0.2 z"
         class="st0" /><path
         style="fill:#ffffff"
         inkscape:connector-curvature="0"
         id="path228"
         d="m 32.66881,45.344625 c -1.4,-1.5 -3.3,-3.3 -5.7,-5 0.7,3.9 0.8,7.900001 0.5,11.400001 -0.2,2.1 -0.4,4.1 -0.8,5.9 3.5,-2.2 6.8,-4.6 9.7,-7 -0.7,-1.5 -1.8,-3.1 -3.1,-4.700001 -0.2,-0.2 -0.4,-0.4 -0.6,-0.6 z m 2.4,5.000001 c -2.2,1.8 -4.6,3.6 -7.1,5.2 0.1,-1 0.3,-2.1 0.4,-3.3 2,-1.7 3.6,-3.2 4.8,-4.7 0.9,1 1.5,2 1.9,2.8 z"
         class="st0" /><path
         style="fill:#ffffff"
         inkscape:connector-curvature="0"
         id="path230"
         d="m 5.968812,54.444626 c -3.1,-2.1 -5.90000004,-4.5 -8.2,-7.4 -3,4.3 -3.9,8.6 -2.1,11.4 1.5,2.3 4.59999996,3.3 8.5,3.1 1.2,-0.1 2.4,-0.2 3.7,-0.5 0.8,1.8 1.6,3.2 2.6,4.4 3.1,-1.2 6.2,-2.7 9.300001,-4.4 -1.600001,-0.5 -3.500001,-1.1 -5.500001,-2 -2.6,-1.3 -5.5,-2.8 -8.3,-4.6 z m -1.8,6.1 c -3.70000004,0.2 -6.3,-0.8 -7.6,-2.7 -1.4,-2.1 -0.9,-5.5 1.3,-9.2 1.99999996,2.3 4.4,4.4 7.2,6.3 0.5,2.1 0.9,3.8 1.5,5.2 -0.8,0.2 -1.6,0.3 -2.4,0.4 z m 6.7,3.6 c -0.5,-0.7 -1,-1.6 -1.5,-2.5 1.6,-0.4 3.3,-1 5,-1.7 1.1,0.5 2.1,0.8 3,1.2 -2.2,1.2 -4.3,2.2 -6.5,3 z"
         class="st0" /><path
         style="fill:#ffffff"
         inkscape:connector-curvature="0"
         id="path232"
         d="m 23.368813,36.244625 c 0.8,0.6 1.499997,1.1 2.199997,1.6 -0.4,-2.2 -0.9,-4.4 -1.699997,-6.6 -0.2,-0.5 -0.4,-1.1 -0.7,-1.6 -0.1,-0.3 -2.5,-5.8 -6.700001,-6 -0.1,0 -0.1,0 -0.2,0 -2.8,0 -5.5,2.5 -7.4,6.5 3.1,0.9 5.9,1.8 8.3,2.9 2.400001,1 4.500001,2.1 6.200001,3.2 z m -7.100001,-11.6 0.1,0 c 3.600001,0.2 5.800001,5.3 5.800001,5.3 l 0,0.1 0.1,0.1 c 0.1,0.1 0.1,0.2 0.2,0.3 -1.8,0.4 -3.6,0.9 -5.300001,1.5 -2.2,-1 -4.6,-1.8 -6.9,-2.4 1.8,-3.1 3.9,-4.9 6,-4.9 z"
         class="st0" /><path
         style="fill:#ffffff"
         inkscape:connector-curvature="0"
         id="path234"
         d="m 25.36881,53.244626 c 0.7,-3.8 1.1,-8.700001 0.4,-13.800001 -0.2,-0.1 -0.4,-0.3 -0.6,-0.4 -1.399997,-0.9 -2.899997,-1.8 -4.399997,-2.6 -1.2,-0.6 -2.400001,-1.2 -3.600001,-1.7 -0.7,-0.3 -1.5,-0.6 -2.2,-0.9 -2.2,-0.7 -4.5,-1.2 -7,-1.7 -1.6,-0.3 -3.1,-0.4 -4.5,-0.4 -4.20000004,0 -7.4,1.2 -8.6,3.7 -1.5,2.9 0,7 3.5,11.000001 1.09999996,1.2 2.29999996,2.4 3.7,3.6 0.1,0.1 0.2,0.2 0.4,0.3 1,0.8 2.1,1.4 3.2,2.2 0,0 0,0 0,0 0,0 0,0 0,0 0,0 0,0 0,0 0,0 0,0 0,0 3.4,2.3 7.2,4.2 10.9,5.6 0.8,0.3 1.2,0.5 1.8,0.7 1.300001,0.4 2.700001,0.8 4.100001,1.1 0.3,-0.1 0.5,-0.3 0.8,-0.4 0.2,-0.1 0.4,-0.2 0.6,-0.3 0.499997,-1.4 1.099997,-3.5 1.499997,-6 z M 5.168812,38.444625 c -2.8,2.1 -5.10000004,4.2 -6.8,6.4 -2.7,-3.5 -3.7,-6.8 -2.6,-8.9 1.1,-2 3.79999996,-3.2 7.7,-3.2 1,0 2,0.1 3.1,0.2 -0.6,1.8 -1.1,3.7 -1.4,5.5 z m 15.800001,16.500001 c -1.5,0.8 -3.000001,1.5 -4.400001,2.1 -3.5,-1.4 -7,-3.1 -10,-5.1 -0.2,-2 -0.3,-4.1 -0.2,-6.300001 0.1,-2.5 0.3,-4.5 0.6,-6.3 1.3,-0.9 2.5,-1.6 3.7,-2.3 1.4,-0.8 2.9,-1.5 4.3,-2.2 0.2,0.1 0.5,0.2 0.7,0.3 0.4,0.1 0.7,0.3 1.1,0.4 1.2,0.5 2.400001,1.1 3.500001,1.7 1.4,0.7 2.8,1.6 4.299997,2.6 l 0.1,0 0,0 c 0,0 0.1,0.1 0.1,0.1 0.6,5 0.2,9.600001 -0.4,12.700001 -1.199997,1 -2.299997,1.7 -3.399997,2.3 z"
         class="st0" /></g></g></svg>