<?xml version="1.0" encoding="utf-8"?>
<!-- Generator: Adobe Illustrator 19.1.0, SVG Export Plug-In . SVG Version: 6.00 Build 0)  -->
<svg version="1.1" id="Camada_1" xmlns="http://www.w3.org/2000/svg" xmlns:xlink="http://www.w3.org/1999/xlink" x="0px" y="0px"
	 viewBox="0 0 20 20" style="enable-background:new 0 0 20 20;" xml:space="preserve">
<style type="text/css">
	.st0{fill:#FFFFFF;}
</style>
<g>
	<path class="st0" d="M12.4,16.4C12.5,16.4,12.5,16.4,12.4,16.4C12.5,16.4,12.5,16.4,12.4,16.4L12.4,16.4z"/>
	<path class="st0" d="M7.6,16.5L7.6,16.5C7.5,16.5,7.5,16.5,7.6,16.5C7.5,16.5,7.5,16.5,7.6,16.5z"/>
	<path class="st0" d="M11.6,13.2c0.3,0,0.6-0.1,0.9-0.1c0.3-0.1,0.6-0.1,0.9-0.3c0.3-0.1,0.6-0.2,0.8-0.4c0.3-0.2,0.5-0.4,0.7-0.6
		c0.2-0.2,0.4-0.5,0.6-0.8c0.2-0.3,0.3-0.7,0.4-1.1c0.1-0.4,0.1-0.9,0.1-1.4c0-1-0.3-1.9-1-2.6c0.3-0.8,0.3-1.6-0.1-2.5l-0.2,0
		c-0.2,0-0.5,0.1-0.9,0.2c-0.4,0.2-0.9,0.4-1.5,0.8C11.6,4.1,10.8,4,10,4C9.2,4,8.4,4.1,7.6,4.3c-0.3-0.2-0.7-0.4-1-0.6
		S6.1,3.5,5.9,3.4C5.7,3.4,5.5,3.3,5.4,3.3c-0.2,0-0.3,0-0.3,0c0,0-0.1,0-0.1,0C4.6,4.3,4.5,5.1,4.8,5.9c-0.7,0.7-1,1.6-1,2.6
		c0,0.5,0,1,0.1,1.4c0.1,0.4,0.2,0.8,0.4,1.1c0.2,0.3,0.3,0.6,0.6,0.8c0.2,0.2,0.5,0.4,0.7,0.6c0.3,0.2,0.5,0.3,0.8,0.4
		c0.3,0.1,0.6,0.2,0.9,0.3c0.3,0.1,0.6,0.1,0.9,0.1c-0.5,0.4-0.8,0.9-0.8,1.7v1.5c0.8,0.2,1.7,0.3,2.5,0.3c0.8,0,1.6-0.1,2.4-0.3
		v-1.5C12.4,14.2,12.2,13.6,11.6,13.2z"/>
</g>
<path class="st0" d="M-26,9.7"/>
<path class="st0" d="M-25.7,12.8"/>
</svg>
