<?xml version="1.0" encoding="utf-8"?>
<!-- Generator: Adobe Illustrator 19.1.0, SVG Export Plug-In . SVG Version: 6.00 Build 0)  -->
<svg version="1.1" id="Camada_1" xmlns="http://www.w3.org/2000/svg" xmlns:xlink="http://www.w3.org/1999/xlink" x="0px" y="0px"
	 viewBox="0 0 285 70" style="enable-background:new 0 0 285 70;" xml:space="preserve">
<style type="text/css">
	.st0{fill:#FFFFFF;}
	.st1{fill:#008BC5;}
</style>
<g id="_x3C_Logo_x3E__1_">
	<g id="_x3C_Logo_Ass_x3E__1_">
		<g id="_x3C_Assinatura_x3E__1_">
			<path class="st0" d="M136.7,50.8c0-1.9,2-2.5,3.8-2.5h0.3v-0.5c0-0.9-0.4-1.2-1.3-1.2c-0.7,0-1.3,0.3-1.8,0.7l-0.7-1
				c0.6-0.6,1.5-1,2.7-1c1.8,0,2.7,0.8,2.7,2.5v2.9c0,0.8,0.1,1.5,0.2,1.9h-1.6c0-0.2-0.1-0.6-0.1-0.8c-0.4,0.5-1.2,1-2.1,1
				C137.6,52.8,136.7,52,136.7,50.8z M140.7,50.8v-1.4h-0.3c-1.3,0-2.2,0.4-2.2,1.4c0,0.6,0.5,0.9,0.9,0.9
				C139.9,51.6,140.4,51.2,140.7,50.8z"/>
			<path class="st0" d="M143.8,49c0-2.4,1.6-3.7,3.5-3.7c1.2,0,1.8,0.4,2.2,0.6L149,47c-0.4-0.2-0.8-0.5-1.6-0.5
				c-1.3,0-1.9,1-1.9,2.5c0,1.4,0.6,2.5,2,2.5c0.9,0,1.4-0.4,1.6-0.5l0.5,1.1c-0.3,0.2-1,0.7-2.3,0.7
				C145.1,52.8,143.8,51.1,143.8,49z"/>
			<path class="st0" d="M150.6,50.8c0-1.9,2-2.5,3.8-2.5h0.3v-0.5c0-0.9-0.4-1.2-1.3-1.2c-0.7,0-1.3,0.3-1.8,0.7l-0.7-1
				c0.6-0.6,1.5-1,2.7-1c1.8,0,2.7,0.8,2.7,2.5v2.9c0,0.8,0.1,1.5,0.2,1.9h-1.6c0-0.2-0.1-0.6-0.1-0.8c-0.4,0.5-1.2,1-2.1,1
				C151.5,52.8,150.6,52,150.6,50.8z M154.7,50.8v-1.4h-0.3c-1.3,0-2.2,0.4-2.2,1.4c0,0.6,0.5,0.9,0.9,0.9
				C153.8,51.6,154.3,51.2,154.7,50.8z"/>
			<path class="st0" d="M157.8,49c0-2.3,1.4-3.8,3.2-3.8c0.8,0,1.3,0.2,1.7,0.6V42h1.6v8.8c0,0.7,0.1,1.4,0.2,1.8h-1.6
				c-0.1-0.2-0.1-0.5-0.1-0.8c-0.5,0.6-1.2,1-2,1C158.9,52.8,157.8,51.4,157.8,49z M162.7,50.6v-3.5c-0.4-0.3-0.8-0.5-1.4-0.5
				c-1.2,0-1.8,1-1.8,2.5c0,1.5,0.5,2.5,1.7,2.5C161.7,51.5,162.3,51.1,162.7,50.6z"/>
			<path class="st0" d="M165.8,49c0-2.2,1.4-3.7,3.4-3.7c1.9,0,3,1.3,3,3.4c0,0.2,0,0.4,0,0.6h-4.7c0.1,1.3,0.6,2.3,2,2.3
				c1,0,1.6-0.4,1.9-0.6l0.5,1.1c-0.4,0.2-1.2,0.7-2.6,0.7C167,52.8,165.8,51.2,165.8,49z M170.6,48.1c0-0.9-0.4-1.7-1.5-1.7
				c-1,0-1.5,0.7-1.7,1.7H170.6z"/>
			<path class="st0" d="M173.8,45.4h1.5v0.9c0.3-0.4,1-1.1,2.2-1.1c1,0,1.6,0.5,1.8,1.2c0.6-0.6,1.3-1.2,2.3-1.2c1.5,0,2,1,2,2.3
				v5.1h-1.6v-4.7c0-0.8-0.2-1.3-1-1.3c-0.7,0-1.3,0.6-1.6,0.9v5h-1.6v-4.7c0-0.8-0.3-1.3-1-1.3c-0.9,0-1.4,0.9-1.6,1.1v4.9h-1.6
				V45.4z"/>
			<path class="st0" d="M184.7,55.9l0.2-1.3c0.1,0,0.2,0.1,0.6,0.1c1,0,1.4-0.5,1.7-1.4l0.3-0.8l-2.7-7h1.7l1.8,5.2h0l1.7-5.2h1.6
				l-3,8c-0.6,1.5-1.3,2.6-3.1,2.6C185.1,56,184.8,56,184.7,55.9z"/>
		</g>
		<g id="_x3C_Logótipo_x3E__2_">
			<path class="st0" d="M117,45.1l0.3-1.6c0.1,0.1,0.4,0.1,0.9,0.1c1.4,0,1.8-1.1,1.8-3V27h1.9v14c0,2.6-1,4.3-3.5,4.3
				C117.5,45.3,117.1,45.1,117,45.1z"/>
			<path class="st0" d="M124.1,33.1c0-3.6,2.3-6.4,5.6-6.4c3.1,0,4.9,2.2,4.9,5.6c0,0.3,0,0.6-0.1,0.9h-8.4c0.1,2.6,1.1,4.9,3.9,4.9
				c1.7,0,2.9-0.8,3.4-1.1l0.8,1.5c-0.6,0.4-2,1.3-4.3,1.3C126.1,39.6,124.1,36.7,124.1,33.1z M132.6,31.6c-0.1-1.8-0.9-3.3-3-3.3
				c-2,0-3.1,1.4-3.4,3.3H132.6z"/>
			<path class="st0" d="M137.6,22.2h2v17.2h-2V22.2z M139.6,30.4l6.9-8.2h2.3l-6.9,8.1l7.4,9.1h-2.5L139.6,30.4z"/>
			<path class="st0" d="M151.3,27h1.9v1.8c1.1-1.4,2.5-2.1,4-2.1c2.6,0,3.6,1.7,3.6,3.9v8.8H159v-8.5c0-1.5-0.5-2.5-2.2-2.5
				c-1.4,0-2.7,1.1-3.6,2.3v8.7h-1.9V27z"/>
			<path class="st0" d="M163.2,33.2c0-2.9,1.5-6.5,5.6-6.5c4.2,0,5.9,3.6,5.9,6.5c0,2.9-1.7,6.5-5.8,6.5
				C164.8,39.6,163.2,36.1,163.2,33.2z M172.8,33.2c0-2.7-1.3-4.9-3.9-4.9c-2.6,0-3.6,2.2-3.6,4.8c0,2.7,1.2,4.9,3.7,4.9
				C171.5,38,172.8,35.8,172.8,33.2z"/>
			<path class="st0" d="M175.4,27h2.1l2.6,9.4h0.1l2.9-9.4h1.8l2.9,9.4h0.1l2.7-9.4h1.9l-3.7,12.4H187l-3.1-9.6h0l-3.1,9.6h-1.7
				L175.4,27z"/>
			<path class="st0" d="M194.4,20.8h1.9v18.6h-1.9V20.8z"/>
			<path class="st0" d="M198.8,33.1c0-3.6,2.3-6.4,5.6-6.4c3.1,0,4.9,2.2,4.9,5.6c0,0.3,0,0.6-0.1,0.9h-8.4c0.1,2.6,1.1,4.9,3.9,4.9
				c1.7,0,2.9-0.8,3.4-1.1l0.8,1.5c-0.6,0.4-2,1.3-4.3,1.3C200.7,39.6,198.8,36.7,198.8,33.1z M207.3,31.6c-0.1-1.8-0.9-3.3-3-3.3
				c-2,0-3.1,1.4-3.4,3.3H207.3z"/>
			<path class="st0" d="M210.9,33.2c0-3.9,2.3-6.5,5.5-6.5c1.3,0,2.3,0.4,3.1,1.1v-7h1.9v16c0,0.9,0.2,1.9,0.3,2.5h-1.9
				c-0.1-0.3-0.2-1-0.2-1.4c-0.8,1.1-2.1,1.7-3.6,1.7C213,39.6,210.9,37.3,210.9,33.2z M219.5,36.2v-6.8c-0.8-0.7-1.7-1.1-3-1.1
				c-2.3,0-3.6,2.1-3.6,4.8c0,2.8,1,4.8,3.5,4.8C217.5,37.9,218.7,37.3,219.5,36.2z"/>
			<path class="st0" d="M223.8,42c0-1.4,0.9-2.5,2.1-3.2c-0.7-0.3-1.1-0.9-1.1-1.8c0-0.8,0.6-1.5,1.3-1.9c-1.4-0.8-2.2-2.2-2.2-3.8
				c0-2.6,1.9-4.5,4.9-4.5c0.7,0,1.3,0.1,1.9,0.3h4v1.5h-1.9c0.6,0.7,0.9,1.7,0.9,2.7c0,2.6-1.9,4.5-4.9,4.5c-0.5,0-0.9-0.1-1.4-0.2
				c-0.6,0.3-0.8,0.6-0.8,1c0,0.7,0.8,0.9,1.8,1c2.7,0.2,6.4-0.1,6.4,3.8c0,2.6-2.9,4.1-6.1,4.1C226,45.5,223.8,44.4,223.8,42z
				 M232.9,41.4c0-2-1.8-2-3.2-2.1c-0.8-0.1-1.6-0.1-2.4-0.2c-1.1,0.7-1.7,1.5-1.7,2.6c0,1.2,1,2.2,3.2,2.2
				C231.2,44,232.9,42.9,232.9,41.4z M231.8,31.2c0-1.7-1.1-3-3-3c-1.9,0-3,1.3-3,3c0,1.7,1.1,3,3,3
				C230.7,34.2,231.8,32.9,231.8,31.2z"/>
			<path class="st0" d="M235.7,33.1c0-3.6,2.3-6.4,5.6-6.4c3.1,0,4.9,2.2,4.9,5.6c0,0.3,0,0.6-0.1,0.9h-8.4c0,2.6,1.1,4.9,3.9,4.9
				c1.7,0,2.9-0.8,3.4-1.1l0.8,1.5c-0.6,0.4-2,1.3-4.3,1.3C237.6,39.6,235.7,36.7,235.7,33.1z M244.2,31.6c-0.1-1.8-0.9-3.3-3-3.3
				c-2,0-3.1,1.4-3.4,3.3H244.2z"/>
			<rect x="119.9" y="22.9" class="st0" width="1.6" height="1.6"/>
		</g>
	</g>
	<g id="_x3C_Badge_x3E__1_">
		<g>
			<path class="st0" d="M78,65.6c-3.3,0-5.5-1.3-5.6-1.3c-1.7-1-16.4-9.5-17.8-10.9c-0.4-0.4-0.6-0.6-0.8-0.8
				C53.3,52,53,51.8,52,50.2c-1-1.8-1.7-3.2-1.8-5.1c0-0.9-0.1-14.9-0.1-19.4l0.1-2.2c0.9-3.2,1.9-4.3,1.9-4.4c0,0,0.5-0.8,1.8-2.1
				c1-1,16.7-10.4,18.5-11.4c0.1-0.1,2.3-1.1,5.2-1.1l0.3,0c3.1,0.1,5.2,1.1,5.3,1.1l17.7,10.1c0.1,0.1,1.9,1.4,3.5,3.6
				c1.6,2.3,1.5,4.8,1.5,4.9l0.1,20.2c0,0.2-0.3,3.3-1.5,5.2c-1.2,1.8-1.5,2.3-2.9,3.6l-0.1,0.1c-1,0.6-18.1,11.1-18.1,11.1
				C83.4,64.5,81.2,65.6,78,65.6z M77.7,5.6c-2.7,0-4.6,0.9-4.7,0.9c-7,4.1-17.7,10.4-18.3,11.1c-1.3,1.3-2.1,2.6-2.1,2.6
				c0,0-1.2,2-1.4,4.5l0,1.2c0,4.5,0,18.2,0,19.1c0,1.6,0.6,2.7,1.6,4.5c1,1.5,1.2,1.7,1.7,2.2c0.2,0.2,0.5,0.5,0.9,0.8
				c1,1,11,7,17.5,10.7c0,0,2.1,1.2,5,1.2c3,0,5-1,5.1-1c0,0,16.6-10.1,18-11c1.2-1.2,1.6-1.7,2.7-3.4c1.1-1.6,1.4-4.6,1.4-4.6
				l-0.1-20.2c0-0.1,0.1-2.3-1.3-4.3c-1.4-1.9-3-3.2-3.3-3.4l-17.6-10l0,0c0,0-2-1-4.8-1L77.7,5.6z"/>
		</g>
		<path class="st0" d="M114.9,14.2C112.2,9.4,105,7.7,95,9.3l3,1.7c7.6-0.8,13.1,0.6,15.1,4.2c4.2,7.6-8.1,22.9-27,33.4
			c-9.4,5.3-19.1,8.7-27.3,9.6c-7.7,0.9-13.3-0.6-15.3-4.1c-1.9-3.4-0.5-8.7,4-14.6c0-1.1,0-2.2,0-3.4c0,0,0,0,0,0
			c-6.4,7.5-8.5,14.3-5.8,19c2,3.6,6.5,5.5,12.9,5.5c1.4,0,2.9-0.1,4.4-0.3c8.4-1,18.4-4.5,28.1-9.9C107.7,39,119.9,23,114.9,14.2z"
			/>
		<g>
			<path class="st0" d="M78.3,67.1l0-0.5c0.3,0,0.7,0,1-0.1l0.1,0.5C79,67.1,78.7,67.1,78.3,67.1z M77.2,67.1
				c-0.4,0-0.7-0.1-1.1-0.1l0.1-0.5c0.3,0,0.7,0.1,1,0.1L77.2,67.1z M80.5,66.9l-0.1-0.5c0.3-0.1,0.7-0.1,1-0.2l0.1,0.5
				C81.2,66.8,80.8,66.8,80.5,66.9z M75.1,66.8c-0.4-0.1-0.7-0.2-1-0.3l0.2-0.5c0.3,0.1,0.7,0.2,1,0.3L75.1,66.8z M82.6,66.4
				l-0.2-0.5c0.5-0.2,0.8-0.3,1-0.4l0.2,0.5C83.4,66.1,83.1,66.2,82.6,66.4z M73,66.1c-0.3-0.1-0.5-0.2-0.6-0.3l0,0L72,65.6l0.3-0.5
				l0.2,0.1c0.1,0,0.3,0.2,0.7,0.3L73,66.1z M84.6,65.4L84.3,65l0.9-0.6l0.3,0.5L84.6,65.4z M71.1,65.1l-0.9-0.5l0.3-0.5l0.9,0.5
				L71.1,65.1z M86.4,64.3l-0.3-0.5l0.9-0.6l0.3,0.5L86.4,64.3z M69.2,64l-0.9-0.5l0.3-0.5l0.9,0.5L69.2,64z M88.2,63.2l-0.3-0.5
				l0.9-0.6l0.3,0.5L88.2,63.2z M67.4,62.9l-0.9-0.5l0.3-0.5l0.9,0.5L67.4,62.9z M90,62.1l-0.3-0.5l0.9-0.6l0.3,0.5L90,62.1z
				 M65.6,61.9l-0.9-0.5l0.3-0.5l0.9,0.5L65.6,61.9z M91.8,61l-0.3-0.5l0.9-0.6l0.3,0.5L91.8,61z M63.7,60.8l-0.9-0.5l0.3-0.5
				l0.9,0.5L63.7,60.8z M93.7,59.8l-0.3-0.5l0.9-0.6l0.3,0.5L93.7,59.8z M61.9,59.7L61,59.1l0.3-0.5l0.9,0.6L61.9,59.7z M95.5,58.7
				l-0.3-0.5l0.9-0.6l0.3,0.5L95.5,58.7z M60.1,58.6L59.1,58l0.3-0.5l0.9,0.6L60.1,58.6z M97.3,57.6L97,57.2l0.9-0.6l0.3,0.5
				L97.3,57.6z M58.2,57.4c-0.3-0.2-0.6-0.4-0.9-0.6l0.3-0.5c0.3,0.2,0.6,0.4,0.9,0.6L58.2,57.4z M99.1,56.5L98.9,56l0.9-0.6
				l0.3,0.5L99.1,56.5z M56.4,56.3c-0.3-0.2-0.6-0.4-0.9-0.6l0.3-0.4c0.3,0.2,0.6,0.4,0.9,0.6L56.4,56.3z M101,55.4l-0.3-0.5
				l0.9-0.6l0.3,0.5L101,55.4z M54.6,55.1c-0.4-0.3-0.7-0.5-0.9-0.6l0.3-0.4c0.2,0.2,0.5,0.4,0.8,0.6L54.6,55.1z M102.8,54.3
				l-0.3-0.5l0.1,0c0.2-0.2,0.5-0.5,0.7-0.7l0.4,0.4c-0.2,0.2-0.4,0.4-0.7,0.7L102.8,54.3z M53,53.7c-0.1-0.1-0.3-0.3-0.4-0.4
				c-0.1-0.1-0.3-0.3-0.4-0.4l0.4-0.4c0.1,0.1,0.2,0.2,0.4,0.4c0.1,0.1,0.2,0.2,0.4,0.4L53,53.7z M104.3,52.7l-0.4-0.3
				c0.2-0.2,0.4-0.5,0.6-0.8l0.4,0.3C104.7,52.1,104.5,52.4,104.3,52.7z M51.5,52.1c-0.2-0.2-0.4-0.5-0.6-0.9l0.4-0.3
				c0.2,0.4,0.4,0.6,0.6,0.9L51.5,52.1z M105.6,50.9l-0.4-0.3l0.3-0.5c0.1-0.1,0.1-0.2,0.2-0.4l0.5,0.3c-0.1,0.1-0.2,0.3-0.2,0.4
				L105.6,50.9z M50.3,50.3c-0.2-0.3-0.4-0.6-0.5-0.9l0.5-0.2c0.2,0.3,0.3,0.6,0.5,0.9L50.3,50.3z M106.6,49l-0.5-0.2
				c0.1-0.3,0.2-0.6,0.3-1L107,48C106.9,48.3,106.7,48.7,106.6,49z M49.4,48.4c-0.1-0.4-0.3-0.7-0.4-1l0.5-0.1
				c0.1,0.3,0.2,0.6,0.3,1L49.4,48.4z M107.2,46.9l-0.5-0.1c0.1-0.4,0.1-0.7,0.2-1l0.5,0.1C107.4,46.2,107.3,46.5,107.2,46.9z
				 M48.8,46.3c0-0.2,0-0.4,0-0.6v-0.5h0.5l0,0.5c0,0.2,0,0.3,0,0.5L48.8,46.3z M107,44.8l0-1.1l0.5,0l0,1.1L107,44.8z M48.8,44.1
				v-1.1h0.5v1.1H48.8z M107,42.6l0-1.1l0.5,0l0,1.1L107,42.6z M49,42v-1.1h0.5V42H49z M106.9,40.5l0-1.1l0.5,0l0,1.1L106.9,40.5z
				 M49.6,39.9H49v-1.1h0.5V39.9z M106.9,38.4l0-1.1l0.5,0l0,1.1L106.9,38.4z M49.6,37.7H49v-1.1h0.5V37.7z M106.9,36.2l0-1.1l0.5,0
				l0,1.1L106.9,36.2z M49.6,35.6H49v-1.1h0.5V35.6z M106.9,34.1l0-1.1l0.5,0l0,1.1L106.9,34.1z M49.6,33.5H49v-1.1h0.5V33.5z
				 M106.9,32l0-1.1l0.5,0l0,1.1H106.9z M49.6,31.4H49v-1.1h0.5V31.4z M106.9,29.8l0-1.1l0.5,0l0,1.1L106.9,29.8z M49.6,29.2H49
				v-1.1h0.5V29.2z M106.9,27.7l0-1.1l0.5,0l0,1.1L106.9,27.7z M49.6,27.1H49V26h0.5V27.1z M106.8,25.6l0-1.1h0.5l0,1.1L106.8,25.6z
				 M49.3,25h-0.5l0-1.1l0.5,0l0,0.2L49.3,25z M106.8,23.5c0-0.2,0-0.6-0.1-1l0.5-0.1c0.1,0.5,0.1,0.9,0.1,1.1L106.8,23.5z
				 M49.5,22.9L49,22.7c0.1-0.3,0.2-0.7,0.3-1.1l0.5,0.2C49.7,22.2,49.6,22.5,49.5,22.9z M106.5,21.4c-0.1-0.3-0.2-0.7-0.3-1
				l0.5-0.2c0.1,0.3,0.3,0.7,0.4,1L106.5,21.4z M50.1,20.9l-0.5-0.2c0.1-0.3,0.3-0.7,0.4-1l0.5,0.2C50.4,20.2,50.2,20.5,50.1,20.9z
				 M105.7,19.5c-0.1-0.2-0.2-0.4-0.4-0.6c-0.1-0.1-0.1-0.2-0.2-0.3l0.4-0.3c0.1,0.1,0.1,0.2,0.2,0.3c0.1,0.2,0.3,0.4,0.4,0.6
				L105.7,19.5z M50.9,19.2l-0.5-0.3c0,0,0.2-0.4,0.6-0.9l0.4,0.3C51.1,18.8,50.9,19.2,50.9,19.2z M104.5,17.9
				c-0.2-0.3-0.5-0.5-0.7-0.8l0.4-0.4c0.2,0.2,0.5,0.5,0.7,0.8L104.5,17.9z M52.1,17.5l-0.4-0.3c0.2-0.3,0.5-0.5,0.7-0.8l0.4,0.4
				C52.6,17,52.3,17.2,52.1,17.5z M103.1,16.3c-0.3-0.3-0.6-0.5-0.8-0.7l0.3-0.4c0.2,0.2,0.5,0.4,0.8,0.7L103.1,16.3z M53.6,16
				l-0.3-0.4c0.2-0.2,0.5-0.4,0.9-0.6l0.3,0.4C54.1,15.7,53.8,15.9,53.6,16z M101.4,15.1l-0.9-0.5l0.3-0.5l0.9,0.5L101.4,15.1z
				 M55.4,14.9l-0.3-0.4c0.3-0.2,0.6-0.4,0.9-0.6l0.3,0.5C55.9,14.5,55.6,14.7,55.4,14.9z M99.6,14l-0.9-0.5l0.3-0.5l0.9,0.5
				L99.6,14z M57.2,13.8l-0.3-0.5l0.9-0.6l0.3,0.5L57.2,13.8z M97.7,12.9l-0.9-0.5l0.3-0.5l0.9,0.5L97.7,12.9z M59,12.7l-0.3-0.5
				l0.9-0.6l0.3,0.5L59,12.7z M95.9,11.9L95,11.4l0.3-0.5l0.9,0.5L95.9,11.9z M60.8,11.6l-0.3-0.5l0.9-0.5l0.3,0.5L60.8,11.6z
				 M94,10.8l-0.9-0.5l0.3-0.5l0.9,0.5L94,10.8z M62.7,10.5L62.4,10l0.9-0.5l0.3,0.5L62.7,10.5z M92.2,9.8l-0.9-0.5l0.3-0.5l0.9,0.5
				L92.2,9.8z M64.5,9.4l-0.3-0.5l0.9-0.5l0.3,0.5L64.5,9.4z M90.3,8.7l-0.9-0.5l0.3-0.5l0.9,0.5L90.3,8.7z M66.3,8.3l-0.3-0.5
				L67,7.3l0.3,0.5L66.3,8.3z M88.5,7.7l-0.9-0.5l0.3-0.5l0.9,0.5L88.5,7.7z M68.2,7.2l-0.3-0.5l0.9-0.5l0.3,0.5L68.2,7.2z
				 M86.6,6.6l-0.9-0.5L86,5.6l0.9,0.5L86.6,6.6z M70,6.1l-0.1-0.2l-0.1-0.2l0.9-0.5l0.3,0.5L70,6.1z M84.8,5.6L83.8,5l0.3-0.5
				L85,5.1L84.8,5.6z M71.8,5l-0.3-0.5l1-0.5l0.1,0.3l0.1,0c0,0.1,0,0.2,0,0.2l0,0l-0.1,0.1l0,0c0,0-0.1,0-0.1,0L71.8,5z M82.9,4.5
				c-0.2-0.1-0.5-0.2-1-0.4l0.2-0.5c0.5,0.1,0.8,0.3,1,0.4L82.9,4.5z M73.7,4.2l-0.2-0.5c0.3-0.1,0.7-0.2,1-0.3l0.1,0.5
				C74.4,4,74.1,4,73.7,4.2z M81,3.9c-0.3-0.1-0.7-0.1-1-0.2L80,3.2c0.4,0.1,0.7,0.1,1.1,0.2L81,3.9z M75.8,3.7l-0.1-0.5
				C76,3.1,76.4,3.1,76.8,3l0,0.5C76.5,3.6,76.1,3.6,75.8,3.7z M78.9,3.6c-0.3,0-0.6,0-0.9,0l-0.1,0l0-0.5H78c0.3,0,0.7,0,1,0.1
				L78.9,3.6z"/>
		</g>
	</g>
	<g id="_x3C_Marca_x3E__1_">
		<g>
			<path class="st0" d="M84,44.5c1.4-0.8,2.7-1.7,3.9-2.6c0.7-3.8,1.1-8.7,0.4-13.8c-0.2-0.1-0.4-0.3-0.6-0.4
				c-1.4-0.9-2.9-1.8-4.4-2.6c-1.2-0.6-2.4-1.2-3.6-1.7c-0.7-0.3-1.5-0.6-2.2-0.9c-1.6,0.7-3.2,1.5-4.8,2.4
				c-1.4,0.8-2.8,1.7-4.1,2.6c-0.4,2.1-0.6,4.4-0.7,6.8c-0.1,2.4,0,4.7,0.3,6.9c3.4,2.3,7.2,4.2,10.9,5.6
				C80.7,46.2,82.4,45.4,84,44.5z"/>
			<path class="st0" d="M68.6,27.7c0.4-2.6,1.1-4.9,1.9-6.9c-6.3-1.1-11.4,0-13.1,3.3c-1.5,2.9,0,7,3.5,11
				C62.8,32.5,65.5,30,68.6,27.7z"/>
			<path class="st0" d="M86.4,19.9c-0.2-0.5-0.4-1.1-0.7-1.6c-0.1-0.3-2.5-5.8-6.7-6c-2.9-0.1-5.6,2.4-7.6,6.5
				c3.1,0.9,5.9,1.8,8.3,2.9C82,20.9,84.3,20.3,86.4,19.9z"/>
			<path class="st0" d="M60.8,35.2c-3.2,4.2-4.3,8.4-2.6,11.3c1.8,3.1,6.4,4.1,12.1,3.2c-0.8-2-1.3-4.2-1.7-6.7
				C65.6,40.8,62.9,38.2,60.8,35.2z"/>
			<path class="st0" d="M95.8,34.4c3.2-4.2,4.4-8.4,2.7-11.4c-1.8-3.1-6.3-4.1-11.9-3.2c1.2,2.3,2,4.8,2.6,7.4
				C92.9,30.3,95,33.1,95.8,34.4z"/>
			<g>
				<path class="st0" d="M98.9,39.3c-0.7-1.5-1.8-3.1-3.1-4.7c-1.5,2-3.5,3.9-5.8,5.8c-0.2,2.1-0.4,4.1-0.8,5.9
					C92.7,44.1,96,41.7,98.9,39.3z"/>
				<path class="st0" d="M88.7,48.4c-0.1,0.3-0.1,0.5-0.2,0.8c5.2,0.5,9.3-0.7,10.7-3.6c0.7-1.4,0.7-3,0.2-4.7
					C96.2,43.5,92.6,46.1,88.7,48.4z"/>
			</g>
			<g>
				<path class="st0" d="M82.1,50.2c-1.6-0.6-3.4-1.3-5.4-2.3c-2.3,0.8-4.5,1.4-6.5,1.8c0.7,1.8,1.5,3.3,2.4,4.5
					C75.8,53.1,78.9,51.8,82.1,50.2z"/>
				<path class="st0" d="M73.8,55.5c1.2,1.1,2.5,1.8,3.9,1.8c2.8,0.1,5.4-2.3,7.4-6.1c-0.3-0.1-0.6-0.2-0.9-0.3
					C80.7,52.7,77.2,54.2,73.8,55.5z"/>
			</g>
		</g>
		<g>
			<path class="st1" d="M89.5,29c0.7,3.9,0.8,7.9,0.5,11.4c2.3-1.9,4.2-3.8,5.8-5.8c-0.2-0.2-0.4-0.4-0.6-0.6
				C93.8,32.5,91.9,30.7,89.5,29z"/>
			<path class="st1" d="M68.5,43c0.4,2.5,1,4.7,1.7,6.7c2.1-0.3,4.3-0.9,6.5-1.8C74.1,46.6,71.2,45,68.5,43z"/>
			<path class="st1" d="M72.7,25.1c1.6-0.9,3.2-1.7,4.8-2.4c-2.2-0.7-4.4-1.4-6.9-1.9c0,0,0,0,0,0c-0.8,2-1.5,4.4-1.9,6.9
				C69.9,26.8,71.3,25.9,72.7,25.1z"/>
			<path class="st1" d="M64.6,38.7c0.1,0.1,0.2,0.2,0.4,0.3c0,0,0,0,0,0c1,0.8,2.1,1.6,3.2,2.4c-0.3-2.2-0.4-4.5-0.3-6.9
				c0.1-2.4,0.3-4.7,0.7-6.8c-3.2,2.3-5.8,4.8-7.7,7.3C62,36.2,63.2,37.5,64.6,38.7z"/>
			<path class="st1" d="M88.1,26.5c-0.4-2.2-0.9-4.4-1.7-6.6c-2.1,0.3-4.3,1-6.7,1.8c2.4,1,4.5,2.1,6.2,3.2
				C86.7,25.5,87.4,26,88.1,26.5z"/>
			<path class="st1" d="M85.1,48.6c0.3-0.1,0.5-0.3,0.8-0.4c0.2-0.1,0.4-0.2,0.6-0.3c0.5-1.4,1-3.4,1.4-5.9
				c-1.2,0.9-2.6,1.7-3.9,2.6c-1.6,0.9-3.2,1.7-4.8,2.4c0.8,0.3,1.2,0.4,1.8,0.6C82.3,48,83.7,48.4,85.1,48.6z"/>
		</g>
	</g>
</g>
</svg>
