<?xml version="1.0" encoding="utf-8"?>
<!-- Generator: Adobe Illustrator 19.1.0, SVG Export Plug-In . SVG Version: 6.00 Build 0)  -->
<svg version="1.1" xmlns="http://www.w3.org/2000/svg" xmlns:xlink="http://www.w3.org/1999/xlink" x="0px" y="0px"
	 viewBox="57 41.5 213.5 70" style="enable-background:new 57 41.5 213.5 70;" xml:space="preserve">
<style type="text/css">
	.st0{fill:#FFFFFF;}
</style>
<g id="Camada_2">
</g>
<g id="Camada_1">
	<g id="_x3C_Logo_x3E__1_">
		<g id="_x3C_Logo_Ass_x3E__1_">
			<g id="_x3C_Assinatura_x3E__1_">
				<path class="st0" d="M157.7,92.3c0-1.9,2-2.5,3.8-2.5h0.3v-0.5c0-0.9-0.4-1.2-1.3-1.2c-0.7,0-1.3,0.3-1.8,0.7l-0.7-1
					c0.6-0.6,1.5-1,2.7-1c1.8,0,2.7,0.8,2.7,2.5v2.9c0,0.8,0.1,1.5,0.2,1.9H162c0-0.2-0.1-0.6-0.1-0.8c-0.4,0.5-1.2,1-2.1,1
					C158.6,94.3,157.7,93.5,157.7,92.3z M161.7,92.3v-1.4h-0.3c-1.3,0-2.2,0.4-2.2,1.4c0,0.6,0.5,0.9,0.9,0.9
					C160.9,93.1,161.4,92.7,161.7,92.3z"/>
				<path class="st0" d="M164.8,90.5c0-2.4,1.6-3.7,3.5-3.7c1.2,0,1.8,0.4,2.2,0.6l-0.5,1.1c-0.4-0.2-0.8-0.5-1.6-0.5
					c-1.3,0-1.9,1-1.9,2.5c0,1.4,0.6,2.5,2,2.5c0.9,0,1.4-0.4,1.6-0.5l0.5,1.1c-0.3,0.2-1,0.7-2.3,0.7
					C166.1,94.3,164.8,92.6,164.8,90.5z"/>
				<path class="st0" d="M171.6,92.3c0-1.9,2-2.5,3.8-2.5h0.3v-0.5c0-0.9-0.4-1.2-1.3-1.2c-0.7,0-1.3,0.3-1.8,0.7l-0.7-1
					c0.6-0.6,1.5-1,2.7-1c1.8,0,2.7,0.8,2.7,2.5v2.9c0,0.8,0.1,1.5,0.2,1.9h-1.6c0-0.2-0.1-0.6-0.1-0.8c-0.4,0.5-1.2,1-2.1,1
					C172.5,94.3,171.6,93.5,171.6,92.3z M175.7,92.3v-1.4h-0.3c-1.3,0-2.2,0.4-2.2,1.4c0,0.6,0.5,0.9,0.9,0.9
					C174.8,93.1,175.3,92.7,175.7,92.3z"/>
				<path class="st0" d="M178.8,90.5c0-2.3,1.4-3.8,3.2-3.8c0.8,0,1.3,0.2,1.7,0.6v-3.8h1.6v8.8c0,0.7,0.1,1.4,0.2,1.8h-1.6
					c-0.1-0.2-0.1-0.5-0.1-0.8c-0.5,0.6-1.2,1-2,1C179.9,94.3,178.8,92.9,178.8,90.5z M183.7,92.1v-3.5c-0.4-0.3-0.8-0.5-1.4-0.5
					c-1.2,0-1.8,1-1.8,2.5s0.5,2.5,1.7,2.5C182.7,93,183.3,92.6,183.7,92.1z"/>
				<path class="st0" d="M186.8,90.5c0-2.2,1.4-3.7,3.4-3.7c1.9,0,3,1.3,3,3.4c0,0.2,0,0.4,0,0.6h-4.7c0.1,1.3,0.6,2.3,2,2.3
					c1,0,1.6-0.4,1.9-0.6l0.5,1.1c-0.4,0.2-1.2,0.7-2.6,0.7C188,94.3,186.8,92.7,186.8,90.5z M191.6,89.6c0-0.9-0.4-1.7-1.5-1.7
					c-1,0-1.5,0.7-1.7,1.7H191.6z"/>
				<path class="st0" d="M194.8,86.9h1.5v0.9c0.3-0.4,1-1.1,2.2-1.1c1,0,1.6,0.5,1.8,1.2c0.6-0.6,1.3-1.2,2.3-1.2c1.5,0,2,1,2,2.3
					v5.1H203v-4.7c0-0.8-0.2-1.3-1-1.3c-0.7,0-1.3,0.6-1.6,0.9v5h-1.6v-4.7c0-0.8-0.3-1.3-1-1.3c-0.9,0-1.4,0.9-1.6,1.1V94h-1.6
					v-7.1H194.8z"/>
				<path class="st0" d="M205.7,97.4l0.2-1.3c0.1,0,0.2,0.1,0.6,0.1c1,0,1.4-0.5,1.7-1.4l0.3-0.8l-2.7-7h1.7l1.8,5.2l0,0L211,87h1.6
					l-3,8c-0.6,1.5-1.3,2.6-3.1,2.6C206.1,97.5,205.8,97.5,205.7,97.4z"/>
			</g>
			<g id="_x3C_Logótipo_x3E__2_">
				<path class="st0" d="M138,86.6l0.3-1.6c0.1,0.1,0.4,0.1,0.9,0.1c1.4,0,1.8-1.1,1.8-3V68.5h1.9v14c0,2.6-1,4.3-3.5,4.3
					C138.5,86.8,138.1,86.6,138,86.6z"/>
				<path class="st0" d="M145.1,74.6c0-3.6,2.3-6.4,5.6-6.4c3.1,0,4.9,2.2,4.9,5.6c0,0.3,0,0.6-0.1,0.9h-8.4
					c0.1,2.6,1.1,4.9,3.9,4.9c1.7,0,2.9-0.8,3.4-1.1l0.8,1.5c-0.6,0.4-2,1.3-4.3,1.3C147.1,81.1,145.1,78.2,145.1,74.6z M153.6,73.1
					c-0.1-1.8-0.9-3.3-3-3.3c-2,0-3.1,1.4-3.4,3.3H153.6z"/>
				<path class="st0" d="M158.6,63.7h2v17.2h-2V63.7z M160.6,71.9l6.9-8.2h2.3l-6.9,8.1l7.4,9.1h-2.5L160.6,71.9z"/>
				<path class="st0" d="M172.3,68.5h1.9v1.8c1.1-1.4,2.5-2.1,4-2.1c2.6,0,3.6,1.7,3.6,3.9v8.8H180v-8.5c0-1.5-0.5-2.5-2.2-2.5
					c-1.4,0-2.7,1.1-3.6,2.3v8.7h-1.9V68.5z"/>
				<path class="st0" d="M184.2,74.7c0-2.9,1.5-6.5,5.6-6.5c4.2,0,5.9,3.6,5.9,6.5c0,2.9-1.7,6.5-5.8,6.5
					C185.8,81.1,184.2,77.6,184.2,74.7z M193.8,74.7c0-2.7-1.3-4.9-3.9-4.9c-2.6,0-3.6,2.2-3.6,4.8c0,2.7,1.2,4.9,3.7,4.9
					S193.8,77.3,193.8,74.7z"/>
				<path class="st0" d="M196.4,68.5h2.1l2.6,9.4h0.1l2.9-9.4h1.8l2.9,9.4h0.1l2.7-9.4h1.9l-3.7,12.4H208l-3.1-9.6l0,0l-3.1,9.6
					h-1.7L196.4,68.5z"/>
				<path class="st0" d="M215.4,62.3h1.9v18.6h-1.9V62.3z"/>
				<path class="st0" d="M219.8,74.6c0-3.6,2.3-6.4,5.6-6.4c3.1,0,4.9,2.2,4.9,5.6c0,0.3,0,0.6-0.1,0.9h-8.4
					c0.1,2.6,1.1,4.9,3.9,4.9c1.7,0,2.9-0.8,3.4-1.1l0.8,1.5c-0.6,0.4-2,1.3-4.3,1.3C221.7,81.1,219.8,78.2,219.8,74.6z M228.3,73.1
					c-0.1-1.8-0.9-3.3-3-3.3c-2,0-3.1,1.4-3.4,3.3H228.3z"/>
				<path class="st0" d="M231.9,74.7c0-3.9,2.3-6.5,5.5-6.5c1.3,0,2.3,0.4,3.1,1.1v-7h1.9v16c0,0.9,0.2,1.9,0.3,2.5h-1.9
					c-0.1-0.3-0.2-1-0.2-1.4c-0.8,1.1-2.1,1.7-3.6,1.7C234,81.1,231.9,78.8,231.9,74.7z M240.5,77.7v-6.8c-0.8-0.7-1.7-1.1-3-1.1
					c-2.3,0-3.6,2.1-3.6,4.8c0,2.8,1,4.8,3.5,4.8C238.5,79.4,239.7,78.8,240.5,77.7z"/>
				<path class="st0" d="M244.8,83.5c0-1.4,0.9-2.5,2.1-3.2c-0.7-0.3-1.1-0.9-1.1-1.8c0-0.8,0.6-1.5,1.3-1.9
					c-1.4-0.8-2.2-2.2-2.2-3.8c0-2.6,1.9-4.5,4.9-4.5c0.7,0,1.3,0.1,1.9,0.3h4v1.5h-1.9c0.6,0.7,0.9,1.7,0.9,2.7
					c0,2.6-1.9,4.5-4.9,4.5c-0.5,0-0.9-0.1-1.4-0.2c-0.6,0.3-0.8,0.6-0.8,1c0,0.7,0.8,0.9,1.8,1c2.7,0.2,6.4-0.1,6.4,3.8
					c0,2.6-2.9,4.1-6.1,4.1C247,87,244.8,85.9,244.8,83.5z M253.9,82.9c0-2-1.8-2-3.2-2.1c-0.8-0.1-1.6-0.1-2.4-0.2
					c-1.1,0.7-1.7,1.5-1.7,2.6c0,1.2,1,2.2,3.2,2.2C252.2,85.5,253.9,84.4,253.9,82.9z M252.8,72.7c0-1.7-1.1-3-3-3s-3,1.3-3,3
					c0,1.7,1.1,3,3,3S252.8,74.4,252.8,72.7z"/>
				<path class="st0" d="M256.7,74.6c0-3.6,2.3-6.4,5.6-6.4c3.1,0,4.9,2.2,4.9,5.6c0,0.3,0,0.6-0.1,0.9h-8.4c0,2.6,1.1,4.9,3.9,4.9
					c1.7,0,2.9-0.8,3.4-1.1l0.8,1.5c-0.6,0.4-2,1.3-4.3,1.3C258.6,81.1,256.7,78.2,256.7,74.6z M265.2,73.1c-0.1-1.8-0.9-3.3-3-3.3
					c-2,0-3.1,1.4-3.4,3.3H265.2z"/>
				<rect x="140.9" y="64.4" class="st0" width="1.6" height="1.6"/>
			</g>
		</g>
		<g>
			<path class="st0" d="M127,85.9l0-7.8c0.3-0.3,0.6-0.6,0.9-1v0.6h0.5v-1.1h0c7.4-7.9,10.5-15.7,7.5-20.9
				c-2.7-4.8-9.9-6.5-19.9-4.9l3,1.7c7.6-0.8,13.1,0.6,15.1,4.2c2.2,4-0.2,10.2-5.7,16.6v-0.9h-0.5v1.1h0.4c-0.4,0.5-0.9,1-1.3,1.5
				l0-9.3c0-0.1,0.1-2.6-1.5-4.9c-1.6-2.2-3.4-3.5-3.5-3.6l-17.7-10.1c-0.1,0-2.2-1-5.3-1.1h-0.3c-2.9,0-5.1,1-5.2,1.1
				c-1.8,1-17.5,10.4-18.5,11.4c-1.3,1.3-1.8,2.1-1.8,2.1c0,0.1-1,1.2-1.9,4.4l-0.1,2.2c0,4.5,0.1,18.5,0.1,19.4
				c0.1,1.9,0.8,3.3,1.8,5.1c1,1.6,1.3,1.8,1.8,2.4c0.2,0.2,0.4,0.4,0.8,0.8c0.6,0.6,3.5,2.4,6.8,4.4c-0.4,0.1-0.8,0.1-1.2,0.2
				L80.4,99l-0.3,0.5l0.2,0.1c-0.2,0-0.4,0-0.5,0.1c-7.7,0.9-13.3-0.6-15.3-4.1c-1.9-3.4-0.5-8.7,4-14.6c0-1.1,0-2.2,0-3.4
				c-6.4,7.5-8.5,14.3-5.8,19c2,3.6,6.5,5.5,12.9,5.5c1.4,0,2.9-0.1,4.4-0.3c1.6-0.2,3.4-0.5,5.1-0.9c3.8,2.3,7.5,4.4,8.3,4.9
				c0.1,0,2.3,1.3,5.6,1.3c3.2,0,5.4-1.1,5.4-1.2c0,0,17.1-10.5,18.1-11.1l0.1-0.1c1.4-1.3,1.7-1.8,2.9-3.6
				C126.7,89.2,127,86.1,127,85.9z M84.2,99c-3.9-2.4-7.2-4.5-7.8-5c-0.4-0.3-0.7-0.6-0.9-0.8c-0.5-0.5-0.7-0.7-1.7-2.2
				c-1-1.8-1.6-2.9-1.6-4.5c0-0.9,0-14.6,0-19.1v-1.2c0.2-2.5,1.4-4.5,1.4-4.5s0.8-1.3,2.1-2.6C76.3,58.4,87,52.1,94,48
				c0.1,0,2-0.9,4.7-0.9L99,47c2.8,0,4.8,1,4.8,1l17.6,10c0.3,0.2,1.9,1.5,3.3,3.4c1.4,2,1.3,4.2,1.3,4.3l0.1,10.2
				c-4.8,5-11.4,10-19,14.2C99.3,94.5,91.4,97.6,84.2,99z M119.3,86.7c-1,2-3.7,3.1-7.5,3.1c0.9-0.5,1.8-1.1,2.6-1.7
				c1.9-1.2,3.7-2.5,5.3-3.8C119.8,85.2,119.6,86,119.3,86.7z M104.1,94.1c-1.6,2.4-3.5,3.7-5.3,3.7l-0.2,0c-0.6,0-1.2-0.2-1.9-0.5
				C99.4,96.2,101.8,95.2,104.1,94.1z M122,93.9c-1.4,0.9-18,11-18,11c-0.1,0-2.1,1-5.1,1c-2.9,0-5-1.2-5-1.2
				c-2.1-1.2-4.7-2.7-7.1-4.2c2.9-0.7,5.9-1.7,8.9-2.8c0.9,0.7,2,1.1,3,1.1c0.1,0,0.1,0,0.2,0c2.6,0,5.1-2.2,7-5.7
				c0.7-0.4,1.5-0.8,2.2-1.2c0.7-0.4,1.4-0.8,2.1-1.2c0.5,0,1.1,0.1,1.6,0.1c4.1,0,7.3-1.2,8.5-3.7c0.5-1.1,0.7-2.2,0.5-3.5
				c2-1.5,3.8-3.1,5.4-4.7l0,7c0,0-0.3,3-1.4,4.6C123.6,92.2,123.2,92.7,122,93.9z"/>
			<rect x="70" y="71.8" class="st0" width="0.5" height="1.1"/>
			<rect x="70" y="73.9" class="st0" width="0.5" height="1.1"/>
			<rect x="70" y="69.6" class="st0" width="0.5" height="1.1"/>
			<polygon class="st0" points="85.7,102.9 86.6,103.4 86.9,102.9 86,102.4 			"/>
			<polygon class="st0" points="87.5,103.9 88.4,104.4 88.7,103.9 87.8,103.4 			"/>
			<polygon class="st0" points="83.8,101.8 84.7,102.3 85,101.8 84.1,101.3 			"/>
			<rect x="69.8" y="84.5" class="st0" width="0.5" height="1.1"/>
			<path class="st0" d="M93.3,106.6l-0.3,0.5l0.4,0.2c0.1,0.1,0.3,0.2,0.6,0.3l0.2-0.6c-0.4-0.1-0.6-0.3-0.7-0.3L93.3,106.6z"/>
			<rect x="70" y="76" class="st0" width="0.5" height="1.1"/>
			<polygon class="st0" points="91.2,106.1 92.1,106.6 92.4,106.1 91.5,105.6 			"/>
			<polygon class="st0" points="89.3,105 90.2,105.5 90.5,105 89.6,104.5 			"/>
			<rect x="70" y="82.4" class="st0" width="0.5" height="1.1"/>
			<rect x="70" y="80.3" class="st0" width="0.5" height="1.1"/>
			<rect x="70" y="78.1" class="st0" width="0.5" height="1.1"/>
			<path class="st0" d="M70.4,89.9l0.4-0.1c-0.1-0.4-0.2-0.7-0.3-1L70,88.9C70.1,89.2,70.3,89.5,70.4,89.9z"/>
			<path class="st0" d="M71.8,91.6c-0.2-0.3-0.3-0.6-0.5-0.9l-0.5,0.2c0.1,0.3,0.3,0.6,0.5,0.9L71.8,91.6z"/>
			<polygon class="st0" points="70.3,65.6 70.3,65.4 69.8,65.4 69.8,66.5 70.3,66.5 			"/>
			<polygon class="st0" points="84.6,51.5 84.3,51 83.4,51.5 83.7,52 			"/>
			<path class="st0" d="M97.8,45v-0.5c-0.4,0.1-0.8,0.1-1.1,0.2l0.1,0.5C97.1,45.1,97.5,45.1,97.8,45z"/>
			<path class="st0" d="M99.9,45.1l0.1-0.4c-0.3-0.1-0.7-0.1-1-0.1h-0.1v0.5H99C99.3,45.1,99.6,45.1,99.9,45.1z"/>
			<path class="st0" d="M104.1,45.5c-0.2-0.1-0.5-0.3-1-0.4l-0.2,0.5c0.5,0.2,0.8,0.3,1,0.4L104.1,45.5z"/>
			<path class="st0" d="M102.1,44.9c-0.4-0.1-0.7-0.1-1.1-0.2v0.5c0.3,0.1,0.7,0.1,1,0.2L102.1,44.9z"/>
			<path class="st0" d="M93.5,46.1L93.5,46.1l0.2-0.1c0,0,0-0.1,0-0.2h-0.1l-0.1-0.3l-1,0.5l0.3,0.5L93.5,46.1z"/>
			<path class="st0" d="M95.6,45.4l-0.1-0.5c-0.3,0.1-0.7,0.2-1,0.3l0.2,0.5C95.1,45.5,95.4,45.5,95.6,45.4z"/>
			<polygon class="st0" points="106,46.6 105.1,46 104.8,46.5 105.8,47.1 			"/>
			<polygon class="st0" points="91,47.6 92,47.2 91.7,46.7 90.8,47.2 90.9,47.4 			"/>
			<polygon class="st0" points="115.3,51.8 114.4,51.3 114.1,51.8 115,52.3 			"/>
			<polygon class="st0" points="111.6,49.7 110.7,49.2 110.4,49.7 111.3,50.2 			"/>
			<polygon class="st0" points="113.5,50.8 112.6,50.3 112.3,50.8 113.2,51.3 			"/>
			<polygon class="st0" points="109.8,48.7 108.9,48.2 108.6,48.7 109.5,49.2 			"/>
			<polygon class="st0" points="107.9,47.6 107,47.1 106.7,47.6 107.6,48.1 			"/>
			<path class="st0" d="M75.5,56.9l-0.3-0.4c-0.4,0.2-0.7,0.4-0.9,0.6l0.3,0.4C74.8,57.4,75.1,57.2,75.5,56.9z"/>
			<path class="st0" d="M73.8,58.3l-0.4-0.4c-0.2,0.3-0.5,0.5-0.7,0.8l0.4,0.3C73.3,58.7,73.6,58.5,73.8,58.3z"/>
			<rect x="70" y="67.5" class="st0" width="0.5" height="1.1"/>
			<path class="st0" d="M72.4,59.8L72,59.5c-0.4,0.5-0.6,0.9-0.6,0.9l0.5,0.3C71.9,60.7,72.1,60.3,72.4,59.8z"/>
			<path class="st0" d="M77.3,55.9L77,55.4c-0.3,0.2-0.6,0.4-0.9,0.6l0.3,0.4C76.6,56.2,76.9,56,77.3,55.9z"/>
			<path class="st0" d="M70.8,63.3l-0.5-0.2c-0.1,0.4-0.2,0.8-0.3,1.1l0.5,0.2C70.6,64,70.7,63.7,70.8,63.3z"/>
			<path class="st0" d="M71.5,61.4L71,61.2c-0.1,0.3-0.3,0.7-0.4,1l0.5,0.2C71.2,62,71.4,61.7,71.5,61.4z"/>
			<polygon class="st0" points="90.1,48.2 89.8,47.7 88.9,48.2 89.2,48.7 			"/>
			<polygon class="st0" points="79.1,54.7 78.8,54.2 77.9,54.8 78.2,55.3 			"/>
			<path class="st0" d="M95.1,108c0.3,0.1,0.6,0.2,1,0.3l0.2-0.5c-0.3-0.1-0.7-0.2-1-0.3L95.1,108z"/>
			<polygon class="st0" points="88.3,49.3 88,48.8 87,49.3 87.3,49.8 			"/>
			<polygon class="st0" points="86.4,50.4 86.1,49.9 85.2,50.4 85.5,50.9 			"/>
			<polygon class="st0" points="82.7,52.6 82.4,52.1 81.5,52.6 81.8,53.1 			"/>
			<polygon class="st0" points="80.9,53.6 80.6,53.1 79.7,53.7 80,54.2 			"/>
			<path class="st0" d="M70.3,87.2v-0.5h-0.5v0.5c0,0.2,0,0.4,0,0.6l0.5-0.1C70.3,87.5,70.3,87.4,70.3,87.2z"/>
			<path class="st0" d="M124.4,57.4c-0.3-0.3-0.6-0.5-0.8-0.7l-0.3,0.4c0.2,0.2,0.5,0.4,0.8,0.7L124.4,57.4z"/>
			<path class="st0" d="M127.1,60.7c-0.1-0.2-0.3-0.4-0.4-0.6c-0.1-0.1-0.1-0.2-0.2-0.3l-0.4,0.3c0.1,0.1,0.1,0.2,0.2,0.3
				c0.2,0.2,0.3,0.4,0.4,0.6L127.1,60.7z"/>
			<rect x="127.9" y="68.1" class="st0" width="0.5" height="1.1"/>
			<rect x="127.9" y="70.2" class="st0" width="0.5" height="1.1"/>
			<path class="st0" d="M76.8,96.8l-0.3,0.4c0.3,0.2,0.6,0.4,0.9,0.6l0.3-0.4C77.4,97.2,77.1,97,76.8,96.8z"/>
			<path class="st0" d="M125.9,59c-0.2-0.3-0.5-0.6-0.7-0.8l-0.4,0.4c0.2,0.3,0.5,0.5,0.7,0.8L125.9,59z"/>
			<path class="st0" d="M78.6,97.8l-0.3,0.5c0.3,0.2,0.6,0.4,0.9,0.6l0.3-0.5C79.2,98.2,78.9,98,78.6,97.8z"/>
			<polygon class="st0" points="116.3,52.4 116,52.9 116.9,53.4 117.2,52.9 			"/>
			<polygon class="st0" points="122.7,56.1 121.8,55.6 121.5,56.1 122.4,56.6 			"/>
			<polygon class="st0" points="120,54.5 119.7,55 120.6,55.5 120.9,55 			"/>
			<polygon class="st0" points="118.1,53.4 117.8,53.9 118.7,54.4 119,53.9 			"/>
			<rect x="127.8" y="66" class="st0" width="0.5" height="1.1"/>
			<path class="st0" d="M126.5,91.6l-0.3,0.5l0.4,0.3l0.4-0.5c0-0.1,0.1-0.3,0.2-0.4l-0.5-0.3C126.6,91.4,126.6,91.5,126.5,91.6z"/>
			<path class="st0" d="M127.1,90.3l0.5,0.2c0.1-0.3,0.3-0.7,0.4-1l-0.6-0.2C127.3,89.7,127.2,90,127.1,90.3z"/>
			<path class="st0" d="M127.7,88.3l0.5,0.1c0.1-0.4,0.2-0.7,0.2-1l-0.5-0.1C127.8,87.6,127.8,87.9,127.7,88.3z"/>
			<rect x="128" y="85.2" class="st0" width="0.5" height="1.1"/>
			<rect x="128" y="83" class="st0" width="0.5" height="1.1"/>
			<path class="st0" d="M123.6,95.3L123.6,95.3l0.2,0.5l0.2-0.1c0.3-0.3,0.5-0.5,0.7-0.7l-0.4-0.4C124.1,94.8,123.8,95.1,123.6,95.3
				z"/>
			<rect x="127.9" y="78.8" class="st0" width="0.5" height="1.1"/>
			<path class="st0" d="M124.9,93.9l0.4,0.3c0.2-0.3,0.4-0.6,0.6-0.8l-0.4-0.3C125.3,93.4,125.1,93.7,124.9,93.9z"/>
			<path class="st0" d="M127.2,61.9c0.1,0.3,0.2,0.7,0.3,1l0.6-0.2c-0.1-0.3-0.3-0.7-0.4-1L127.2,61.9z"/>
			<path class="st0" d="M127.7,64c0.1,0.4,0.1,0.8,0.1,1h0.5c0-0.2,0-0.6-0.1-1.1L127.7,64z"/>
			<rect x="127.9" y="80.9" class="st0" width="0.5" height="1.1"/>
			<polygon class="st0" points="118,98.7 118.3,99.1 119.2,98.6 118.9,98.1 			"/>
			<polygon class="st0" points="110.7,103.1 111,103.6 111.9,103 111.6,102.5 			"/>
			<polygon class="st0" points="112.5,102 112.8,102.5 113.7,101.9 113.4,101.4 			"/>
			<polygon class="st0" points="114.4,100.8 114.7,101.3 115.6,100.7 115.3,100.2 			"/>
			<polygon class="st0" points="116.2,99.7 116.5,100.2 117.4,99.6 117.1,99.1 			"/>
			<path class="st0" d="M97.1,108.5c0.4,0,0.7,0.1,1.1,0.1v-0.5c-0.3,0-0.7-0.1-1-0.1L97.1,108.5z"/>
			<polygon class="st0" points="108.9,104.2 109.2,104.7 110.1,104.1 109.8,103.6 			"/>
			<path class="st0" d="M99.3,108.1v0.5c0.4,0,0.7,0,1.1-0.1l-0.1-0.5C100,108.1,99.6,108.1,99.3,108.1z"/>
			<path class="st0" d="M75,95.6L74.7,96c0.2,0.1,0.5,0.3,0.9,0.6l0.2-0.4C75.5,96,75.2,95.8,75,95.6z"/>
			<polygon class="st0" points="107.1,105.3 107.4,105.8 108.3,105.2 108,104.7 			"/>
			<path class="st0" d="M103.4,107.4l0.2,0.5c0.5-0.2,0.8-0.3,1-0.4l-0.2-0.5C104.2,107.1,103.9,107.2,103.4,107.4z"/>
			<polygon class="st0" points="105.3,106.5 105.6,106.9 106.5,106.4 106.2,105.9 			"/>
			<path class="st0" d="M101.4,107.9l0.1,0.5c0.3-0.1,0.7-0.1,1-0.2l-0.1-0.5C102.1,107.8,101.7,107.8,101.4,107.9z"/>
			<path class="st0" d="M72.3,92.4l-0.4,0.3c0.2,0.4,0.4,0.7,0.6,0.9l0.4-0.3C72.7,93,72.5,92.8,72.3,92.4z"/>
			<path class="st0" d="M74,95.2l0.4-0.4c-0.2-0.2-0.3-0.3-0.4-0.4c-0.2-0.2-0.3-0.3-0.4-0.4l-0.4,0.4c0.1,0.1,0.3,0.3,0.4,0.4
				C73.7,94.9,73.9,95.1,74,95.2z"/>
			<polygon class="st0" points="119.9,97.5 120.1,98 121.1,97.4 120.8,96.9 			"/>
			<polygon class="st0" points="121.7,96.4 122,96.9 122.9,96.3 122.6,95.8 			"/>
			<path class="st0" d="M116.8,75.9c3.2-4.2,4.4-8.4,2.7-11.4c-1.4-2.4-4.3-3.5-8.2-3.5c-1.2,0-2.4,0.1-3.7,0.3
				c1.2,2.3,2,4.8,2.6,7.4C113.9,71.8,116,74.6,116.8,75.9z M111.3,62c3.6,0,6.2,1.1,7.3,3c1.3,2.3,0.6,5.6-1.8,9.2
				c-1-1.4-2.8-3.5-5.7-6c-0.5-2.3-1.2-4.3-2-6C109.9,62,110.6,62,111.3,62z"/>
			<path class="st0" d="M116.2,75.5c-1.4-1.5-3.3-3.3-5.7-5c0.7,3.9,0.8,7.9,0.5,11.4c-0.2,2.1-0.4,4.1-0.8,5.9
				c3.5-2.2,6.8-4.6,9.7-7c-0.7-1.5-1.8-3.1-3.1-4.7C116.6,75.9,116.4,75.7,116.2,75.5z M118.6,80.5c-2.2,1.8-4.6,3.6-7.1,5.2
				c0.1-1,0.3-2.1,0.4-3.3c2-1.7,3.6-3.2,4.8-4.7C117.6,78.7,118.2,79.7,118.6,80.5z"/>
			<path class="st0" d="M89.5,84.6c-3.1-2.1-5.9-4.5-8.2-7.4c-3,4.3-3.9,8.6-2.1,11.4c1.5,2.3,4.6,3.3,8.5,3.1
				c1.2-0.1,2.4-0.2,3.7-0.5c0.8,1.8,1.6,3.2,2.6,4.4c3.1-1.2,6.2-2.7,9.3-4.4c-1.6-0.5-3.5-1.1-5.5-2
				C95.2,87.9,92.3,86.4,89.5,84.6z M87.7,90.7c-3.7,0.2-6.3-0.8-7.6-2.7c-1.4-2.1-0.9-5.5,1.3-9.2c2,2.3,4.4,4.4,7.2,6.3
				c0.5,2.1,0.9,3.8,1.5,5.2C89.3,90.5,88.5,90.6,87.7,90.7z M94.4,94.3c-0.5-0.7-1-1.6-1.5-2.5c1.6-0.4,3.3-1,5-1.7
				c1.1,0.5,2.1,0.8,3,1.2C98.7,92.5,96.6,93.5,94.4,94.3z"/>
			<path class="st0" d="M106.9,66.4c0.8,0.6,1.5,1.1,2.2,1.6c-0.4-2.2-0.9-4.4-1.7-6.6c-0.2-0.5-0.4-1.1-0.7-1.6
				c-0.1-0.3-2.5-5.8-6.7-6c-0.1,0-0.1,0-0.2,0c-2.8,0-5.5,2.5-7.4,6.5c3.1,0.9,5.9,1.8,8.3,2.9C103.1,64.2,105.2,65.3,106.9,66.4z
				 M99.8,54.8l0.1,0c3.6,0.2,5.8,5.3,5.8,5.3l0,0.1l0.1,0.1c0.1,0.1,0.1,0.2,0.2,0.3c-1.8,0.4-3.6,0.9-5.3,1.5
				c-2.2-1-4.6-1.8-6.9-2.4C95.6,56.6,97.7,54.8,99.8,54.8z"/>
			<path class="st0" d="M108.9,83.4c0.7-3.8,1.1-8.7,0.4-13.8c-0.2-0.1-0.4-0.3-0.6-0.4c-1.4-0.9-2.9-1.8-4.4-2.6
				c-1.2-0.6-2.4-1.2-3.6-1.7c-0.7-0.3-1.5-0.6-2.2-0.9c-2.2-0.7-4.5-1.2-7-1.7c-1.6-0.3-3.1-0.4-4.5-0.4c-4.2,0-7.4,1.2-8.6,3.7
				c-1.5,2.9,0,7,3.5,11c1.1,1.2,2.3,2.4,3.7,3.6c0.1,0.1,0.2,0.2,0.4,0.3c1,0.8,2.1,1.4,3.2,2.2c0,0,0,0,0,0c0,0,0,0,0,0
				c0,0,0,0,0,0c0,0,0,0,0,0c3.4,2.3,7.2,4.2,10.9,5.6c0.8,0.3,1.2,0.5,1.8,0.7c1.3,0.4,2.7,0.8,4.1,1.1c0.3-0.1,0.5-0.3,0.8-0.4
				c0.2-0.1,0.4-0.2,0.6-0.3C107.9,88,108.5,85.9,108.9,83.4z M88.7,68.6c-2.8,2.1-5.1,4.2-6.8,6.4c-2.7-3.5-3.7-6.8-2.6-8.9
				c1.1-2,3.8-3.2,7.7-3.2c1,0,2,0.1,3.1,0.2C89.5,64.9,89,66.8,88.7,68.6z M104.5,85.1c-1.5,0.8-3,1.5-4.4,2.1
				c-3.5-1.4-7-3.1-10-5.1c-0.2-2-0.3-4.1-0.2-6.3c0.1-2.5,0.3-4.5,0.6-6.3c1.3-0.9,2.5-1.6,3.7-2.3c1.4-0.8,2.9-1.5,4.3-2.2
				c0.2,0.1,0.5,0.2,0.7,0.3c0.4,0.1,0.7,0.3,1.1,0.4c1.2,0.5,2.4,1.1,3.5,1.7c1.4,0.7,2.8,1.6,4.3,2.6l0.1,0l0,0
				c0,0,0.1,0.1,0.1,0.1c0.6,5,0.2,9.6-0.4,12.7C106.7,83.8,105.6,84.5,104.5,85.1z"/>
		</g>
	</g>
</g>
</svg>
