<?xml version="1.0" encoding="UTF-8" standalone="no"?>
<!-- Generator: Adobe Illustrator 19.1.0, SVG Export Plug-In . SVG Version: 6.00 Build 0)  -->

<svg
   xmlns:dc="http://purl.org/dc/elements/1.1/"
   xmlns:cc="http://creativecommons.org/ns#"
   xmlns:rdf="http://www.w3.org/1999/02/22-rdf-syntax-ns#"
   xmlns:svg="http://www.w3.org/2000/svg"
   xmlns="http://www.w3.org/2000/svg"
   xmlns:sodipodi="http://sodipodi.sourceforge.net/DTD/sodipodi-0.dtd"
   xmlns:inkscape="http://www.inkscape.org/namespaces/inkscape"
   version="1.1"
   x="0px"
   y="0px"
   viewBox="57 41.5 129.2 131.37739"
   xml:space="preserve"
   id="svg2"
   inkscape:version="0.48.4 r9939"
   width="100%"
   height="100%"
   sodipodi:docname="jkacademylogo (copy).svg"><metadata
     id="metadata240"><rdf:RDF><cc:Work
         rdf:about=""><dc:format>image/svg+xml</dc:format><dc:type
           rdf:resource="http://purl.org/dc/dcmitype/StillImage" /></cc:Work></rdf:RDF></metadata><defs
     id="defs238" /><sodipodi:namedview
     pagecolor="#ffffff"
     bordercolor="#666666"
     borderopacity="1"
     objecttolerance="10"
     gridtolerance="10"
     guidetolerance="10"
     inkscape:pageopacity="0"
     inkscape:pageshadow="2"
     inkscape:window-width="1307"
     inkscape:window-height="744"
     id="namedview236"
     showgrid="false"
     fit-margin-top="0"
     fit-margin-left="0"
     fit-margin-right="0"
     fit-margin-bottom="0"
     inkscape:zoom="1.3676815"
     inkscape:cx="83.351076"
     inkscape:cy="46.27935"
     inkscape:window-x="59"
     inkscape:window-y="24"
     inkscape:window-maximized="1"
     inkscape:current-layer="svg2" /><style
     type="text/css"
     id="style4">
	.st0{fill:#FFFFFF;}
</style><g
     id="Camada_2"
     transform="translate(-24.130089,60.460614)" /><g
     id="_x3C_Logo_x3E__1_"
     transform="translate(-77.505089,77.27739)"><g
       id="_x3C_Logo_Ass_x3E__1_"
       transform="translate(-3.4949113,-4)"><g
         id="_x3C_Assinatura_x3E__1_"
         transform="translate(17.45,2)"><path
           style="fill:#ffffff"
           inkscape:connector-curvature="0"
           id="path11"
           d="m 157.7,92.3 c 0,-1.9 2,-2.5 3.8,-2.5 h 0.3 v -0.5 c 0,-0.9 -0.4,-1.2 -1.3,-1.2 -0.7,0 -1.3,0.3 -1.8,0.7 l -0.7,-1 c 0.6,-0.6 1.5,-1 2.7,-1 1.8,0 2.7,0.8 2.7,2.5 v 2.9 c 0,0.8 0.1,1.5 0.2,1.9 H 162 c 0,-0.2 -0.1,-0.6 -0.1,-0.8 -0.4,0.5 -1.2,1 -2.1,1 -1.2,0 -2.1,-0.8 -2.1,-2 z m 4,0 v -1.4 h -0.3 c -1.3,0 -2.2,0.4 -2.2,1.4 0,0.6 0.5,0.9 0.9,0.9 0.8,-0.1 1.3,-0.5 1.6,-0.9 z"
           class="st0" /><path
           style="fill:#ffffff"
           inkscape:connector-curvature="0"
           id="path13"
           d="m 164.8,90.5 c 0,-2.4 1.6,-3.7 3.5,-3.7 1.2,0 1.8,0.4 2.2,0.6 l -0.5,1.1 c -0.4,-0.2 -0.8,-0.5 -1.6,-0.5 -1.3,0 -1.9,1 -1.9,2.5 0,1.4 0.6,2.5 2,2.5 0.9,0 1.4,-0.4 1.6,-0.5 l 0.5,1.1 c -0.3,0.2 -1,0.7 -2.3,0.7 -2.2,0 -3.5,-1.7 -3.5,-3.8 z"
           class="st0" /><path
           style="fill:#ffffff"
           inkscape:connector-curvature="0"
           id="path15"
           d="m 171.6,92.3 c 0,-1.9 2,-2.5 3.8,-2.5 h 0.3 v -0.5 c 0,-0.9 -0.4,-1.2 -1.3,-1.2 -0.7,0 -1.3,0.3 -1.8,0.7 l -0.7,-1 c 0.6,-0.6 1.5,-1 2.7,-1 1.8,0 2.7,0.8 2.7,2.5 v 2.9 c 0,0.8 0.1,1.5 0.2,1.9 h -1.6 c 0,-0.2 -0.1,-0.6 -0.1,-0.8 -0.4,0.5 -1.2,1 -2.1,1 -1.2,0 -2.1,-0.8 -2.1,-2 z m 4.1,0 v -1.4 h -0.3 c -1.3,0 -2.2,0.4 -2.2,1.4 0,0.6 0.5,0.9 0.9,0.9 0.7,-0.1 1.2,-0.5 1.6,-0.9 z"
           class="st0" /><path
           style="fill:#ffffff"
           inkscape:connector-curvature="0"
           id="path17"
           d="m 178.8,90.5 c 0,-2.3 1.4,-3.8 3.2,-3.8 0.8,0 1.3,0.2 1.7,0.6 v -3.8 h 1.6 v 8.8 c 0,0.7 0.1,1.4 0.2,1.8 h -1.6 c -0.1,-0.2 -0.1,-0.5 -0.1,-0.8 -0.5,0.6 -1.2,1 -2,1 -1.9,0 -3,-1.4 -3,-3.8 z m 4.9,1.6 v -3.5 c -0.4,-0.3 -0.8,-0.5 -1.4,-0.5 -1.2,0 -1.8,1 -1.8,2.5 0,1.5 0.5,2.5 1.7,2.5 0.5,-0.1 1.1,-0.5 1.5,-1 z"
           class="st0" /><path
           style="fill:#ffffff"
           inkscape:connector-curvature="0"
           id="path19"
           d="m 186.8,90.5 c 0,-2.2 1.4,-3.7 3.4,-3.7 1.9,0 3,1.3 3,3.4 0,0.2 0,0.4 0,0.6 h -4.7 c 0.1,1.3 0.6,2.3 2,2.3 1,0 1.6,-0.4 1.9,-0.6 l 0.5,1.1 c -0.4,0.2 -1.2,0.7 -2.6,0.7 -2.3,0 -3.5,-1.6 -3.5,-3.8 z m 4.8,-0.9 c 0,-0.9 -0.4,-1.7 -1.5,-1.7 -1,0 -1.5,0.7 -1.7,1.7 h 3.2 z"
           class="st0" /><path
           style="fill:#ffffff"
           inkscape:connector-curvature="0"
           id="path21"
           d="m 194.8,86.9 h 1.5 v 0.9 c 0.3,-0.4 1,-1.1 2.2,-1.1 1,0 1.6,0.5 1.8,1.2 0.6,-0.6 1.3,-1.2 2.3,-1.2 1.5,0 2,1 2,2.3 v 5.1 H 203 v -4.7 c 0,-0.8 -0.2,-1.3 -1,-1.3 -0.7,0 -1.3,0.6 -1.6,0.9 v 5 h -1.6 v -4.7 c 0,-0.8 -0.3,-1.3 -1,-1.3 -0.9,0 -1.4,0.9 -1.6,1.1 V 94 h -1.6 v -7.1 h 0.2 z"
           class="st0" /><path
           style="fill:#ffffff"
           inkscape:connector-curvature="0"
           id="path23"
           d="m 205.7,97.4 0.2,-1.3 c 0.1,0 0.2,0.1 0.6,0.1 1,0 1.4,-0.5 1.7,-1.4 l 0.3,-0.8 -2.7,-7 h 1.7 l 1.8,5.2 0,0 1.7,-5.2 h 1.6 l -3,8 c -0.6,1.5 -1.3,2.6 -3.1,2.6 -0.4,-0.1 -0.7,-0.1 -0.8,-0.2 z"
           class="st0" /></g><g
         id="_x3C_Logótipo_x3E__2_"><path
           style="fill:#ffffff"
           inkscape:connector-curvature="0"
           id="path26"
           d="m 138,86.6 0.3,-1.6 c 0.1,0.1 0.4,0.1 0.9,0.1 1.4,0 1.8,-1.1 1.8,-3 V 68.5 h 1.9 v 14 c 0,2.6 -1,4.3 -3.5,4.3 -0.9,0 -1.3,-0.2 -1.4,-0.2 z"
           class="st0" /><path
           style="fill:#ffffff"
           inkscape:connector-curvature="0"
           id="path28"
           d="m 145.1,74.6 c 0,-3.6 2.3,-6.4 5.6,-6.4 3.1,0 4.9,2.2 4.9,5.6 0,0.3 0,0.6 -0.1,0.9 h -8.4 c 0.1,2.6 1.1,4.9 3.9,4.9 1.7,0 2.9,-0.8 3.4,-1.1 l 0.8,1.5 c -0.6,0.4 -2,1.3 -4.3,1.3 -3.8,-0.2 -5.8,-3.1 -5.8,-6.7 z m 8.5,-1.5 c -0.1,-1.8 -0.9,-3.3 -3,-3.3 -2,0 -3.1,1.4 -3.4,3.3 h 6.4 z"
           class="st0" /><path
           style="fill:#ffffff"
           inkscape:connector-curvature="0"
           id="path30"
           d="m 158.6,63.7 h 2 v 17.2 h -2 V 63.7 z m 2,8.2 6.9,-8.2 h 2.3 l -6.9,8.1 7.4,9.1 h -2.5 l -7.2,-9 z"
           class="st0" /><path
           style="fill:#ffffff"
           inkscape:connector-curvature="0"
           id="path32"
           d="m 172.3,68.5 h 1.9 v 1.8 c 1.1,-1.4 2.5,-2.1 4,-2.1 2.6,0 3.6,1.7 3.6,3.9 v 8.8 H 180 v -8.5 c 0,-1.5 -0.5,-2.5 -2.2,-2.5 -1.4,0 -2.7,1.1 -3.6,2.3 v 8.7 h -1.9 V 68.5 z"
           class="st0" /><path
           style="fill:#ffffff"
           inkscape:connector-curvature="0"
           id="path34"
           d="m 184.2,74.7 c 0,-2.9 1.5,-6.5 5.6,-6.5 4.2,0 5.9,3.6 5.9,6.5 0,2.9 -1.7,6.5 -5.8,6.5 -4.1,-0.1 -5.7,-3.6 -5.7,-6.5 z m 9.6,0 c 0,-2.7 -1.3,-4.9 -3.9,-4.9 -2.6,0 -3.6,2.2 -3.6,4.8 0,2.7 1.2,4.9 3.7,4.9 2.5,0 3.8,-2.2 3.8,-4.8 z"
           class="st0" /><path
           style="fill:#ffffff"
           inkscape:connector-curvature="0"
           id="path36"
           d="m 196.4,68.5 h 2.1 l 2.6,9.4 h 0.1 l 2.9,-9.4 h 1.8 l 2.9,9.4 h 0.1 l 2.7,-9.4 h 1.9 l -3.7,12.4 H 208 l -3.1,-9.6 0,0 -3.1,9.6 h -1.7 l -3.7,-12.4 z"
           class="st0" /><path
           style="fill:#ffffff"
           inkscape:connector-curvature="0"
           id="path38"
           d="m 215.4,62.3 h 1.9 v 18.6 h -1.9 V 62.3 z"
           class="st0" /><path
           style="fill:#ffffff"
           inkscape:connector-curvature="0"
           id="path40"
           d="m 219.8,74.6 c 0,-3.6 2.3,-6.4 5.6,-6.4 3.1,0 4.9,2.2 4.9,5.6 0,0.3 0,0.6 -0.1,0.9 h -8.4 c 0.1,2.6 1.1,4.9 3.9,4.9 1.7,0 2.9,-0.8 3.4,-1.1 l 0.8,1.5 c -0.6,0.4 -2,1.3 -4.3,1.3 -3.9,-0.2 -5.8,-3.1 -5.8,-6.7 z m 8.5,-1.5 c -0.1,-1.8 -0.9,-3.3 -3,-3.3 -2,0 -3.1,1.4 -3.4,3.3 h 6.4 z"
           class="st0" /><path
           style="fill:#ffffff"
           inkscape:connector-curvature="0"
           id="path42"
           d="m 231.9,74.7 c 0,-3.9 2.3,-6.5 5.5,-6.5 1.3,0 2.3,0.4 3.1,1.1 v -7 h 1.9 v 16 c 0,0.9 0.2,1.9 0.3,2.5 h -1.9 c -0.1,-0.3 -0.2,-1 -0.2,-1.4 -0.8,1.1 -2.1,1.7 -3.6,1.7 -3,0 -5.1,-2.3 -5.1,-6.4 z m 8.6,3 v -6.8 c -0.8,-0.7 -1.7,-1.1 -3,-1.1 -2.3,0 -3.6,2.1 -3.6,4.8 0,2.8 1,4.8 3.5,4.8 1.1,0 2.3,-0.6 3.1,-1.7 z"
           class="st0" /><path
           style="fill:#ffffff"
           inkscape:connector-curvature="0"
           id="path44"
           d="m 244.8,83.5 c 0,-1.4 0.9,-2.5 2.1,-3.2 -0.7,-0.3 -1.1,-0.9 -1.1,-1.8 0,-0.8 0.6,-1.5 1.3,-1.9 -1.4,-0.8 -2.2,-2.2 -2.2,-3.8 0,-2.6 1.9,-4.5 4.9,-4.5 0.7,0 1.3,0.1 1.9,0.3 h 4 v 1.5 h -1.9 c 0.6,0.7 0.9,1.7 0.9,2.7 0,2.6 -1.9,4.5 -4.9,4.5 -0.5,0 -0.9,-0.1 -1.4,-0.2 -0.6,0.3 -0.8,0.6 -0.8,1 0,0.7 0.8,0.9 1.8,1 2.7,0.2 6.4,-0.1 6.4,3.8 0,2.6 -2.9,4.1 -6.1,4.1 -2.7,0 -4.9,-1.1 -4.9,-3.5 z m 9.1,-0.6 c 0,-2 -1.8,-2 -3.2,-2.1 -0.8,-0.1 -1.6,-0.1 -2.4,-0.2 -1.1,0.7 -1.7,1.5 -1.7,2.6 0,1.2 1,2.2 3.2,2.2 2.4,0.1 4.1,-1 4.1,-2.5 z m -1.1,-10.2 c 0,-1.7 -1.1,-3 -3,-3 -1.9,0 -3,1.3 -3,3 0,1.7 1.1,3 3,3 1.9,0 3,-1.3 3,-3 z"
           class="st0" /><path
           style="fill:#ffffff"
           inkscape:connector-curvature="0"
           id="path46"
           d="m 256.7,74.6 c 0,-3.6 2.3,-6.4 5.6,-6.4 3.1,0 4.9,2.2 4.9,5.6 0,0.3 0,0.6 -0.1,0.9 h -8.4 c 0,2.6 1.1,4.9 3.9,4.9 1.7,0 2.9,-0.8 3.4,-1.1 l 0.8,1.5 c -0.6,0.4 -2,1.3 -4.3,1.3 -3.9,-0.2 -5.8,-3.1 -5.8,-6.7 z m 8.5,-1.5 c -0.1,-1.8 -0.9,-3.3 -3,-3.3 -2,0 -3.1,1.4 -3.4,3.3 h 6.4 z"
           class="st0" /><rect
           style="fill:#ffffff"
           id="rect48"
           height="1.6"
           width="1.6"
           class="st0"
           y="64.400002"
           x="140.89999" /></g></g><g
       id="g50"
       transform="matrix(1.4211,0,0,1.4211,58.000904,-99.01634)"><path
         style="fill:#ffffff"
         inkscape:connector-curvature="0"
         id="path52"
         d="m 127,85.9 0,-7.8 c 0.3,-0.3 0.6,-0.6 0.9,-1 v 0.6 h 0.5 v -1.1 h 0 c 7.4,-7.9 10.5,-15.7 7.5,-20.9 -2.7,-4.8 -9.9,-6.5 -19.9,-4.9 l 3,1.7 c 7.6,-0.8 13.1,0.6 15.1,4.2 2.2,4 -0.2,10.2 -5.7,16.6 v -0.9 h -0.5 v 1.1 h 0.4 c -0.4,0.5 -0.9,1 -1.3,1.5 l 0,-9.3 c 0,-0.1 0.1,-2.6 -1.5,-4.9 -1.6,-2.2 -3.4,-3.5 -3.5,-3.6 L 104.3,47.1 c -0.1,0 -2.2,-1 -5.3,-1.1 h -0.3 c -2.9,0 -5.1,1 -5.2,1.1 -1.8,1 -17.5,10.4 -18.5,11.4 -1.3,1.3 -1.8,2.1 -1.8,2.1 0,0.1 -1,1.2 -1.9,4.4 l -0.1,2.2 c 0,4.5 0.1,18.5 0.1,19.4 0.1,1.9 0.8,3.3 1.8,5.1 1,1.6 1.3,1.8 1.8,2.4 0.2,0.2 0.4,0.4 0.8,0.8 0.6,0.6 3.5,2.4 6.8,4.4 -0.4,0.1 -0.8,0.1 -1.2,0.2 l -0.9,-0.5 -0.3,0.5 0.2,0.1 c -0.2,0 -0.4,0 -0.5,0.1 -7.7,0.9 -13.3,-0.6 -15.3,-4.1 -1.9,-3.4 -0.5,-8.7 4,-14.6 0,-1.1 0,-2.2 0,-3.4 -6.4,7.5 -8.5,14.3 -5.8,19 2,3.6 6.5,5.5 12.9,5.5 1.4,0 2.9,-0.1 4.4,-0.3 1.6,-0.2 3.4,-0.5 5.1,-0.9 3.8,2.3 7.5,4.4 8.3,4.9 0.1,0 2.3,1.3 5.6,1.3 3.2,0 5.4,-1.1 5.4,-1.2 0,0 17.1,-10.5 18.1,-11.1 l 0.1,-0.1 c 1.4,-1.3 1.7,-1.8 2.9,-3.6 1.2,-1.9 1.5,-5 1.5,-5.2 z M 84.2,99 C 80.3,96.6 77,94.5 76.4,94 76,93.7 75.7,93.4 75.5,93.2 75,92.7 74.8,92.5 73.8,91 c -1,-1.8 -1.6,-2.9 -1.6,-4.5 0,-0.9 0,-14.6 0,-19.1 v -1.2 c 0.2,-2.5 1.4,-4.5 1.4,-4.5 0,0 0.8,-1.3 2.1,-2.6 0.6,-0.7 11.3,-7 18.3,-11.1 0.1,0 2,-0.9 4.7,-0.9 L 99,47 c 2.8,0 4.8,1 4.8,1 l 17.6,10 c 0.3,0.2 1.9,1.5 3.3,3.4 1.4,2 1.3,4.2 1.3,4.3 l 0.1,10.2 c -4.8,5 -11.4,10 -19,14.2 -7.8,4.4 -15.7,7.5 -22.9,8.9 z m 35.1,-12.3 c -1,2 -3.7,3.1 -7.5,3.1 0.9,-0.5 1.8,-1.1 2.6,-1.7 1.9,-1.2 3.7,-2.5 5.3,-3.8 0.1,0.9 -0.1,1.7 -0.4,2.4 z m -15.2,7.4 c -1.6,2.4 -3.5,3.7 -5.3,3.7 l -0.2,0 c -0.6,0 -1.2,-0.2 -1.9,-0.5 2.7,-1.1 5.1,-2.1 7.4,-3.2 z M 122,93.9 c -1.4,0.9 -18,11 -18,11 -0.1,0 -2.1,1 -5.1,1 -2.9,0 -5,-1.2 -5,-1.2 -2.1,-1.2 -4.7,-2.7 -7.1,-4.2 2.9,-0.7 5.9,-1.7 8.9,-2.8 0.9,0.7 2,1.1 3,1.1 0.1,0 0.1,0 0.2,0 2.6,0 5.1,-2.2 7,-5.7 0.7,-0.4 1.5,-0.8 2.2,-1.2 0.7,-0.4 1.4,-0.8 2.1,-1.2 0.5,0 1.1,0.1 1.6,0.1 4.1,0 7.3,-1.2 8.5,-3.7 0.5,-1.1 0.7,-2.2 0.5,-3.5 2,-1.5 3.8,-3.1 5.4,-4.7 l 0,7 c 0,0 -0.3,3 -1.4,4.6 -1.2,1.7 -1.6,2.2 -2.8,3.4 z"
         class="st0" /><rect
         style="fill:#ffffff"
         id="rect54"
         height="1.1"
         width="0.5"
         class="st0"
         y="71.800003"
         x="70" /><rect
         style="fill:#ffffff"
         id="rect56"
         height="1.1"
         width="0.5"
         class="st0"
         y="73.900002"
         x="70" /><rect
         style="fill:#ffffff"
         id="rect58"
         height="1.1"
         width="0.5"
         class="st0"
         y="69.599998"
         x="70" /><polygon
         style="fill:#ffffff"
         id="polygon60"
         points="86.9,102.9 86,102.4 85.7,102.9 86.6,103.4 "
         class="st0" /><polygon
         style="fill:#ffffff"
         id="polygon62"
         points="88.7,103.9 87.8,103.4 87.5,103.9 88.4,104.4 "
         class="st0" /><polygon
         style="fill:#ffffff"
         id="polygon64"
         points="85,101.8 84.1,101.3 83.8,101.8 84.7,102.3 "
         class="st0" /><rect
         style="fill:#ffffff"
         id="rect66"
         height="1.1"
         width="0.5"
         class="st0"
         y="84.5"
         x="69.800003" /><path
         style="fill:#ffffff"
         inkscape:connector-curvature="0"
         id="path68"
         d="m 93.3,106.6 -0.3,0.5 0.4,0.2 c 0.1,0.1 0.3,0.2 0.6,0.3 l 0.2,-0.6 c -0.4,-0.1 -0.6,-0.3 -0.7,-0.3 l -0.2,-0.1 z"
         class="st0" /><rect
         style="fill:#ffffff"
         id="rect70"
         height="1.1"
         width="0.5"
         class="st0"
         y="76"
         x="70" /><polygon
         style="fill:#ffffff"
         id="polygon72"
         points="92.4,106.1 91.5,105.6 91.2,106.1 92.1,106.6 "
         class="st0" /><polygon
         style="fill:#ffffff"
         id="polygon74"
         points="90.5,105 89.6,104.5 89.3,105 90.2,105.5 "
         class="st0" /><rect
         style="fill:#ffffff"
         id="rect76"
         height="1.1"
         width="0.5"
         class="st0"
         y="82.400002"
         x="70" /><rect
         style="fill:#ffffff"
         id="rect78"
         height="1.1"
         width="0.5"
         class="st0"
         y="80.300003"
         x="70" /><rect
         style="fill:#ffffff"
         id="rect80"
         height="1.1"
         width="0.5"
         class="st0"
         y="78.099998"
         x="70" /><path
         style="fill:#ffffff"
         inkscape:connector-curvature="0"
         id="path82"
         d="m 70.4,89.9 0.4,-0.1 c -0.1,-0.4 -0.2,-0.7 -0.3,-1 L 70,88.9 c 0.1,0.3 0.3,0.6 0.4,1 z"
         class="st0" /><path
         style="fill:#ffffff"
         inkscape:connector-curvature="0"
         id="path84"
         d="M 71.8,91.6 C 71.6,91.3 71.5,91 71.3,90.7 l -0.5,0.2 c 0.1,0.3 0.3,0.6 0.5,0.9 l 0.5,-0.2 z"
         class="st0" /><polygon
         style="fill:#ffffff"
         id="polygon86"
         points="69.8,66.5 70.3,66.5 70.3,65.6 70.3,65.4 69.8,65.4 "
         class="st0" /><polygon
         style="fill:#ffffff"
         id="polygon88"
         points="83.4,51.5 83.7,52 84.6,51.5 84.3,51 "
         class="st0" /><path
         style="fill:#ffffff"
         inkscape:connector-curvature="0"
         id="path90"
         d="m 97.8,45 v -0.5 c -0.4,0.1 -0.8,0.1 -1.1,0.2 l 0.1,0.5 c 0.3,-0.1 0.7,-0.1 1,-0.2 z"
         class="st0" /><path
         style="fill:#ffffff"
         inkscape:connector-curvature="0"
         id="path92"
         d="m 99.9,45.1 0.1,-0.4 c -0.3,-0.1 -0.7,-0.1 -1,-0.1 h -0.1 v 0.5 H 99 c 0.3,0 0.6,0 0.9,0 z"
         class="st0" /><path
         style="fill:#ffffff"
         inkscape:connector-curvature="0"
         id="path94"
         d="m 104.1,45.5 c -0.2,-0.1 -0.5,-0.3 -1,-0.4 l -0.2,0.5 c 0.5,0.2 0.8,0.3 1,0.4 l 0.2,-0.5 z"
         class="st0" /><path
         style="fill:#ffffff"
         inkscape:connector-curvature="0"
         id="path96"
         d="m 102.1,44.9 c -0.4,-0.1 -0.7,-0.1 -1.1,-0.2 v 0.5 c 0.3,0.1 0.7,0.1 1,0.2 l 0.1,-0.5 z"
         class="st0" /><path
         style="fill:#ffffff"
         inkscape:connector-curvature="0"
         id="path98"
         d="m 93.5,46.1 0,0 0.2,-0.1 c 0,0 0,-0.1 0,-0.2 h -0.1 l -0.1,-0.3 -1,0.5 0.3,0.5 0.7,-0.4 z"
         class="st0" /><path
         style="fill:#ffffff"
         inkscape:connector-curvature="0"
         id="path100"
         d="m 95.6,45.4 -0.1,-0.5 c -0.3,0.1 -0.7,0.2 -1,0.3 l 0.2,0.5 c 0.4,-0.2 0.7,-0.2 0.9,-0.3 z"
         class="st0" /><polygon
         style="fill:#ffffff"
         id="polygon102"
         points="104.8,46.5 105.8,47.1 106,46.6 105.1,46 "
         class="st0" /><polygon
         style="fill:#ffffff"
         id="polygon104"
         points="90.8,47.2 90.9,47.4 91,47.6 92,47.2 91.7,46.7 "
         class="st0" /><polygon
         style="fill:#ffffff"
         id="polygon106"
         points="114.1,51.8 115,52.3 115.3,51.8 114.4,51.3 "
         class="st0" /><polygon
         style="fill:#ffffff"
         id="polygon108"
         points="110.4,49.7 111.3,50.2 111.6,49.7 110.7,49.2 "
         class="st0" /><polygon
         style="fill:#ffffff"
         id="polygon110"
         points="112.3,50.8 113.2,51.3 113.5,50.8 112.6,50.3 "
         class="st0" /><polygon
         style="fill:#ffffff"
         id="polygon112"
         points="108.6,48.7 109.5,49.2 109.8,48.7 108.9,48.2 "
         class="st0" /><polygon
         style="fill:#ffffff"
         id="polygon114"
         points="106.7,47.6 107.6,48.1 107.9,47.6 107,47.1 "
         class="st0" /><path
         style="fill:#ffffff"
         inkscape:connector-curvature="0"
         id="path116"
         d="m 75.5,56.9 -0.3,-0.4 c -0.4,0.2 -0.7,0.4 -0.9,0.6 l 0.3,0.4 c 0.2,-0.1 0.5,-0.3 0.9,-0.6 z"
         class="st0" /><path
         style="fill:#ffffff"
         inkscape:connector-curvature="0"
         id="path118"
         d="m 73.8,58.3 -0.4,-0.4 c -0.2,0.3 -0.5,0.5 -0.7,0.8 l 0.4,0.3 c 0.2,-0.3 0.5,-0.5 0.7,-0.7 z"
         class="st0" /><rect
         style="fill:#ffffff"
         id="rect120"
         height="1.1"
         width="0.5"
         class="st0"
         y="67.5"
         x="70" /><path
         style="fill:#ffffff"
         inkscape:connector-curvature="0"
         id="path122"
         d="M 72.4,59.8 72,59.5 c -0.4,0.5 -0.6,0.9 -0.6,0.9 l 0.5,0.3 c 0,0 0.2,-0.4 0.5,-0.9 z"
         class="st0" /><path
         style="fill:#ffffff"
         inkscape:connector-curvature="0"
         id="path124"
         d="M 77.3,55.9 77,55.4 c -0.3,0.2 -0.6,0.4 -0.9,0.6 l 0.3,0.4 c 0.2,-0.2 0.5,-0.4 0.9,-0.5 z"
         class="st0" /><path
         style="fill:#ffffff"
         inkscape:connector-curvature="0"
         id="path126"
         d="m 70.8,63.3 -0.5,-0.2 c -0.1,0.4 -0.2,0.8 -0.3,1.1 l 0.5,0.2 c 0.1,-0.4 0.2,-0.7 0.3,-1.1 z"
         class="st0" /><path
         style="fill:#ffffff"
         inkscape:connector-curvature="0"
         id="path128"
         d="M 71.5,61.4 71,61.2 c -0.1,0.3 -0.3,0.7 -0.4,1 l 0.5,0.2 c 0.1,-0.4 0.3,-0.7 0.4,-1 z"
         class="st0" /><polygon
         style="fill:#ffffff"
         id="polygon130"
         points="88.9,48.2 89.2,48.7 90.1,48.2 89.8,47.7 "
         class="st0" /><polygon
         style="fill:#ffffff"
         id="polygon132"
         points="77.9,54.8 78.2,55.3 79.1,54.7 78.8,54.2 "
         class="st0" /><path
         style="fill:#ffffff"
         inkscape:connector-curvature="0"
         id="path134"
         d="m 95.1,108 c 0.3,0.1 0.6,0.2 1,0.3 l 0.2,-0.5 c -0.3,-0.1 -0.7,-0.2 -1,-0.3 l -0.2,0.5 z"
         class="st0" /><polygon
         style="fill:#ffffff"
         id="polygon136"
         points="87,49.3 87.3,49.8 88.3,49.3 88,48.8 "
         class="st0" /><polygon
         style="fill:#ffffff"
         id="polygon138"
         points="85.2,50.4 85.5,50.9 86.4,50.4 86.1,49.9 "
         class="st0" /><polygon
         style="fill:#ffffff"
         id="polygon140"
         points="81.5,52.6 81.8,53.1 82.7,52.6 82.4,52.1 "
         class="st0" /><polygon
         style="fill:#ffffff"
         id="polygon142"
         points="79.7,53.7 80,54.2 80.9,53.6 80.6,53.1 "
         class="st0" /><path
         style="fill:#ffffff"
         inkscape:connector-curvature="0"
         id="path144"
         d="m 70.3,87.2 v -0.5 h -0.5 v 0.5 c 0,0.2 0,0.4 0,0.6 l 0.5,-0.1 c 0,-0.2 0,-0.3 0,-0.5 z"
         class="st0" /><path
         style="fill:#ffffff"
         inkscape:connector-curvature="0"
         id="path146"
         d="m 124.4,57.4 c -0.3,-0.3 -0.6,-0.5 -0.8,-0.7 l -0.3,0.4 c 0.2,0.2 0.5,0.4 0.8,0.7 l 0.3,-0.4 z"
         class="st0" /><path
         style="fill:#ffffff"
         inkscape:connector-curvature="0"
         id="path148"
         d="m 127.1,60.7 c -0.1,-0.2 -0.3,-0.4 -0.4,-0.6 -0.1,-0.1 -0.1,-0.2 -0.2,-0.3 l -0.4,0.3 c 0.1,0.1 0.1,0.2 0.2,0.3 0.2,0.2 0.3,0.4 0.4,0.6 l 0.4,-0.3 z"
         class="st0" /><rect
         style="fill:#ffffff"
         id="rect150"
         height="1.1"
         width="0.5"
         class="st0"
         y="68.099998"
         x="127.9" /><rect
         style="fill:#ffffff"
         id="rect152"
         height="1.1"
         width="0.5"
         class="st0"
         y="70.199997"
         x="127.9" /><path
         style="fill:#ffffff"
         inkscape:connector-curvature="0"
         id="path154"
         d="m 76.8,96.8 -0.3,0.4 c 0.3,0.2 0.6,0.4 0.9,0.6 l 0.3,-0.4 C 77.4,97.2 77.1,97 76.8,96.8 z"
         class="st0" /><path
         style="fill:#ffffff"
         inkscape:connector-curvature="0"
         id="path156"
         d="m 125.9,59 c -0.2,-0.3 -0.5,-0.6 -0.7,-0.8 l -0.4,0.4 c 0.2,0.3 0.5,0.5 0.7,0.8 l 0.4,-0.4 z"
         class="st0" /><path
         style="fill:#ffffff"
         inkscape:connector-curvature="0"
         id="path158"
         d="m 78.6,97.8 -0.3,0.5 c 0.3,0.2 0.6,0.4 0.9,0.6 l 0.3,-0.5 C 79.2,98.2 78.9,98 78.6,97.8 z"
         class="st0" /><polygon
         style="fill:#ffffff"
         id="polygon160"
         points="116.9,53.4 117.2,52.9 116.3,52.4 116,52.9 "
         class="st0" /><polygon
         style="fill:#ffffff"
         id="polygon162"
         points="121.5,56.1 122.4,56.6 122.7,56.1 121.8,55.6 "
         class="st0" /><polygon
         style="fill:#ffffff"
         id="polygon164"
         points="120.6,55.5 120.9,55 120,54.5 119.7,55 "
         class="st0" /><polygon
         style="fill:#ffffff"
         id="polygon166"
         points="118.7,54.4 119,53.9 118.1,53.4 117.8,53.9 "
         class="st0" /><rect
         style="fill:#ffffff"
         id="rect168"
         height="1.1"
         width="0.5"
         class="st0"
         y="66"
         x="127.8" /><path
         style="fill:#ffffff"
         inkscape:connector-curvature="0"
         id="path170"
         d="m 126.5,91.6 -0.3,0.5 0.4,0.3 0.4,-0.5 c 0,-0.1 0.1,-0.3 0.2,-0.4 l -0.5,-0.3 c -0.1,0.2 -0.1,0.3 -0.2,0.4 z"
         class="st0" /><path
         style="fill:#ffffff"
         inkscape:connector-curvature="0"
         id="path172"
         d="m 127.1,90.3 0.5,0.2 c 0.1,-0.3 0.3,-0.7 0.4,-1 l -0.6,-0.2 c -0.1,0.4 -0.2,0.7 -0.3,1 z"
         class="st0" /><path
         style="fill:#ffffff"
         inkscape:connector-curvature="0"
         id="path174"
         d="m 127.7,88.3 0.5,0.1 c 0.1,-0.4 0.2,-0.7 0.2,-1 l -0.5,-0.1 c -0.1,0.3 -0.1,0.6 -0.2,1 z"
         class="st0" /><rect
         style="fill:#ffffff"
         id="rect176"
         height="1.1"
         width="0.5"
         class="st0"
         y="85.199997"
         x="128" /><rect
         style="fill:#ffffff"
         id="rect178"
         height="1.1"
         width="0.5"
         class="st0"
         y="83"
         x="128" /><path
         style="fill:#ffffff"
         inkscape:connector-curvature="0"
         id="path180"
         d="m 123.6,95.3 0,0 0.2,0.5 0.2,-0.1 c 0.3,-0.3 0.5,-0.5 0.7,-0.7 l -0.4,-0.4 c -0.2,0.2 -0.5,0.5 -0.7,0.7 z"
         class="st0" /><rect
         style="fill:#ffffff"
         id="rect182"
         height="1.1"
         width="0.5"
         class="st0"
         y="78.800003"
         x="127.9" /><path
         style="fill:#ffffff"
         inkscape:connector-curvature="0"
         id="path184"
         d="m 124.9,93.9 0.4,0.3 c 0.2,-0.3 0.4,-0.6 0.6,-0.8 l -0.4,-0.3 c -0.2,0.3 -0.4,0.6 -0.6,0.8 z"
         class="st0" /><path
         style="fill:#ffffff"
         inkscape:connector-curvature="0"
         id="path186"
         d="m 127.2,61.9 c 0.1,0.3 0.2,0.7 0.3,1 l 0.6,-0.2 c -0.1,-0.3 -0.3,-0.7 -0.4,-1 l -0.5,0.2 z"
         class="st0" /><path
         style="fill:#ffffff"
         inkscape:connector-curvature="0"
         id="path188"
         d="m 127.7,64 c 0.1,0.4 0.1,0.8 0.1,1 h 0.5 c 0,-0.2 0,-0.6 -0.1,-1.1 l -0.5,0.1 z"
         class="st0" /><rect
         style="fill:#ffffff"
         id="rect190"
         height="1.1"
         width="0.5"
         class="st0"
         y="80.900002"
         x="127.9" /><polygon
         style="fill:#ffffff"
         id="polygon192"
         points="119.2,98.6 118.9,98.1 118,98.7 118.3,99.1 "
         class="st0" /><polygon
         style="fill:#ffffff"
         id="polygon194"
         points="111.9,103 111.6,102.5 110.7,103.1 111,103.6 "
         class="st0" /><polygon
         style="fill:#ffffff"
         id="polygon196"
         points="113.7,101.9 113.4,101.4 112.5,102 112.8,102.5 "
         class="st0" /><polygon
         style="fill:#ffffff"
         id="polygon198"
         points="115.6,100.7 115.3,100.2 114.4,100.8 114.7,101.3 "
         class="st0" /><polygon
         style="fill:#ffffff"
         id="polygon200"
         points="117.4,99.6 117.1,99.1 116.2,99.7 116.5,100.2 "
         class="st0" /><path
         style="fill:#ffffff"
         inkscape:connector-curvature="0"
         id="path202"
         d="m 97.1,108.5 c 0.4,0 0.7,0.1 1.1,0.1 v -0.5 c -0.3,0 -0.7,-0.1 -1,-0.1 l -0.1,0.5 z"
         class="st0" /><polygon
         style="fill:#ffffff"
         id="polygon204"
         points="110.1,104.1 109.8,103.6 108.9,104.2 109.2,104.7 "
         class="st0" /><path
         style="fill:#ffffff"
         inkscape:connector-curvature="0"
         id="path206"
         d="m 99.3,108.1 v 0.5 c 0.4,0 0.7,0 1.1,-0.1 l -0.1,-0.5 c -0.3,0.1 -0.7,0.1 -1,0.1 z"
         class="st0" /><path
         style="fill:#ffffff"
         inkscape:connector-curvature="0"
         id="path208"
         d="M 75,95.6 74.7,96 c 0.2,0.1 0.5,0.3 0.9,0.6 l 0.2,-0.4 C 75.5,96 75.2,95.8 75,95.6 z"
         class="st0" /><polygon
         style="fill:#ffffff"
         id="polygon210"
         points="108.3,105.2 108,104.7 107.1,105.3 107.4,105.8 "
         class="st0" /><path
         style="fill:#ffffff"
         inkscape:connector-curvature="0"
         id="path212"
         d="m 103.4,107.4 0.2,0.5 c 0.5,-0.2 0.8,-0.3 1,-0.4 l -0.2,-0.5 c -0.2,0.1 -0.5,0.2 -1,0.4 z"
         class="st0" /><polygon
         style="fill:#ffffff"
         id="polygon214"
         points="106.5,106.4 106.2,105.9 105.3,106.5 105.6,106.9 "
         class="st0" /><path
         style="fill:#ffffff"
         inkscape:connector-curvature="0"
         id="path216"
         d="m 101.4,107.9 0.1,0.5 c 0.3,-0.1 0.7,-0.1 1,-0.2 l -0.1,-0.5 c -0.3,0.1 -0.7,0.1 -1,0.2 z"
         class="st0" /><path
         style="fill:#ffffff"
         inkscape:connector-curvature="0"
         id="path218"
         d="m 72.3,92.4 -0.4,0.3 c 0.2,0.4 0.4,0.7 0.6,0.9 l 0.4,-0.3 C 72.7,93 72.5,92.8 72.3,92.4 z"
         class="st0" /><path
         style="fill:#ffffff"
         inkscape:connector-curvature="0"
         id="path220"
         d="m 74,95.2 0.4,-0.4 C 74.2,94.6 74.1,94.5 74,94.4 73.8,94.2 73.7,94.1 73.6,94 l -0.4,0.4 c 0.1,0.1 0.3,0.3 0.4,0.4 0.1,0.1 0.3,0.3 0.4,0.4 z"
         class="st0" /><polygon
         style="fill:#ffffff"
         id="polygon222"
         points="121.1,97.4 120.8,96.9 119.9,97.5 120.1,98 "
         class="st0" /><polygon
         style="fill:#ffffff"
         id="polygon224"
         points="122.9,96.3 122.6,95.8 121.7,96.4 122,96.9 "
         class="st0" /><path
         style="fill:#ffffff"
         inkscape:connector-curvature="0"
         id="path226"
         d="m 116.8,75.9 c 3.2,-4.2 4.4,-8.4 2.7,-11.4 -1.4,-2.4 -4.3,-3.5 -8.2,-3.5 -1.2,0 -2.4,0.1 -3.7,0.3 1.2,2.3 2,4.8 2.6,7.4 3.7,3.1 5.8,5.9 6.6,7.2 z M 111.3,62 c 3.6,0 6.2,1.1 7.3,3 1.3,2.3 0.6,5.6 -1.8,9.2 -1,-1.4 -2.8,-3.5 -5.7,-6 -0.5,-2.3 -1.2,-4.3 -2,-6 0.8,-0.2 1.5,-0.2 2.2,-0.2 z"
         class="st0" /><path
         style="fill:#ffffff"
         inkscape:connector-curvature="0"
         id="path228"
         d="m 116.2,75.5 c -1.4,-1.5 -3.3,-3.3 -5.7,-5 0.7,3.9 0.8,7.9 0.5,11.4 -0.2,2.1 -0.4,4.1 -0.8,5.9 3.5,-2.2 6.8,-4.6 9.7,-7 -0.7,-1.5 -1.8,-3.1 -3.1,-4.7 -0.2,-0.2 -0.4,-0.4 -0.6,-0.6 z m 2.4,5 c -2.2,1.8 -4.6,3.6 -7.1,5.2 0.1,-1 0.3,-2.1 0.4,-3.3 2,-1.7 3.6,-3.2 4.8,-4.7 0.9,1 1.5,2 1.9,2.8 z"
         class="st0" /><path
         style="fill:#ffffff"
         inkscape:connector-curvature="0"
         id="path230"
         d="m 89.5,84.6 c -3.1,-2.1 -5.9,-4.5 -8.2,-7.4 -3,4.3 -3.9,8.6 -2.1,11.4 1.5,2.3 4.6,3.3 8.5,3.1 1.2,-0.1 2.4,-0.2 3.7,-0.5 0.8,1.8 1.6,3.2 2.6,4.4 3.1,-1.2 6.2,-2.7 9.3,-4.4 -1.6,-0.5 -3.5,-1.1 -5.5,-2 -2.6,-1.3 -5.5,-2.8 -8.3,-4.6 z m -1.8,6.1 C 84,90.9 81.4,89.9 80.1,88 c -1.4,-2.1 -0.9,-5.5 1.3,-9.2 2,2.3 4.4,4.4 7.2,6.3 0.5,2.1 0.9,3.8 1.5,5.2 -0.8,0.2 -1.6,0.3 -2.4,0.4 z m 6.7,3.6 c -0.5,-0.7 -1,-1.6 -1.5,-2.5 1.6,-0.4 3.3,-1 5,-1.7 1.1,0.5 2.1,0.8 3,1.2 -2.2,1.2 -4.3,2.2 -6.5,3 z"
         class="st0" /><path
         style="fill:#ffffff"
         inkscape:connector-curvature="0"
         id="path232"
         d="m 106.9,66.4 c 0.8,0.6 1.5,1.1 2.2,1.6 -0.4,-2.2 -0.9,-4.4 -1.7,-6.6 -0.2,-0.5 -0.4,-1.1 -0.7,-1.6 -0.1,-0.3 -2.5,-5.8 -6.7,-6 -0.1,0 -0.1,0 -0.2,0 -2.8,0 -5.5,2.5 -7.4,6.5 3.1,0.9 5.9,1.8 8.3,2.9 2.4,1 4.5,2.1 6.2,3.2 z m -7.1,-11.6 0.1,0 c 3.6,0.2 5.8,5.3 5.8,5.3 l 0,0.1 0.1,0.1 c 0.1,0.1 0.1,0.2 0.2,0.3 -1.8,0.4 -3.6,0.9 -5.3,1.5 -2.2,-1 -4.6,-1.8 -6.9,-2.4 1.8,-3.1 3.9,-4.9 6,-4.9 z"
         class="st0" /><path
         style="fill:#ffffff"
         inkscape:connector-curvature="0"
         id="path234"
         d="m 108.9,83.4 c 0.7,-3.8 1.1,-8.7 0.4,-13.8 -0.2,-0.1 -0.4,-0.3 -0.6,-0.4 -1.4,-0.9 -2.9,-1.8 -4.4,-2.6 -1.2,-0.6 -2.4,-1.2 -3.6,-1.7 C 100,64.6 99.2,64.3 98.5,64 96.3,63.3 94,62.8 91.5,62.3 89.9,62 88.4,61.9 87,61.9 c -4.2,0 -7.4,1.2 -8.6,3.7 -1.5,2.9 0,7 3.5,11 1.1,1.2 2.3,2.4 3.7,3.6 0.1,0.1 0.2,0.2 0.4,0.3 1,0.8 2.1,1.4 3.2,2.2 0,0 0,0 0,0 0,0 0,0 0,0 0,0 0,0 0,0 0,0 0,0 0,0 3.4,2.3 7.2,4.2 10.9,5.6 0.8,0.3 1.2,0.5 1.8,0.7 1.3,0.4 2.7,0.8 4.1,1.1 0.3,-0.1 0.5,-0.3 0.8,-0.4 0.2,-0.1 0.4,-0.2 0.6,-0.3 0.5,-1.4 1.1,-3.5 1.5,-6 z M 88.7,68.6 c -2.8,2.1 -5.1,4.2 -6.8,6.4 -2.7,-3.5 -3.7,-6.8 -2.6,-8.9 1.1,-2 3.8,-3.2 7.7,-3.2 1,0 2,0.1 3.1,0.2 -0.6,1.8 -1.1,3.7 -1.4,5.5 z m 15.8,16.5 c -1.5,0.8 -3,1.5 -4.4,2.1 -3.5,-1.4 -7,-3.1 -10,-5.1 -0.2,-2 -0.3,-4.1 -0.2,-6.3 0.1,-2.5 0.3,-4.5 0.6,-6.3 1.3,-0.9 2.5,-1.6 3.7,-2.3 1.4,-0.8 2.9,-1.5 4.3,-2.2 0.2,0.1 0.5,0.2 0.7,0.3 0.4,0.1 0.7,0.3 1.1,0.4 1.2,0.5 2.4,1.1 3.5,1.7 1.4,0.7 2.8,1.6 4.3,2.6 l 0.1,0 0,0 c 0,0 0.1,0.1 0.1,0.1 0.6,5 0.2,9.6 -0.4,12.7 -1.2,1 -2.3,1.7 -3.4,2.3 z"
         class="st0" /></g></g></svg>