<?xml version="1.0" encoding="utf-8"?>
<!-- Generator: Adobe Illustrator 19.1.0, SVG Export Plug-In . SVG Version: 6.00 Build 0)  -->
<svg version="1.1" id="Camada_1" xmlns="http://www.w3.org/2000/svg" xmlns:xlink="http://www.w3.org/1999/xlink" x="0px" y="0px"
	 viewBox="0 0 20 20" style="enable-background:new 0 0 20 20;" xml:space="preserve">
<style type="text/css">
	.st0{fill:#FFFFFF;}
</style>
<g id="_x3C_Marca_x3E__20_">
	<g>
		<g>
			<path class="st0" d="M9.7,5.7c0.2,0.1,0.4,0.2,0.7,0.3c0.5,0.2,0.9,0.4,1.3,0.6c0.6,0.3,1.2,0.6,1.7,1l0,0c0.2,1.9,0,3.6-0.2,4.8
				c-0.4,0.3-0.9,0.6-1.3,0.8c-0.5,0.3-1.1,0.6-1.6,0.8C9,13.6,7.7,13,6.6,12.2c-0.1-0.8-0.1-1.6-0.1-2.4c0-0.8,0.1-1.6,0.2-2.4
				c0.4-0.3,0.9-0.6,1.4-0.9C8.6,6.3,9.1,6,9.7,5.7 M9.7,5.2C9.1,5.5,8.4,5.8,7.8,6.2c-0.6,0.3-1.1,0.7-1.6,1C6.1,8,6,8.9,6,9.8
				c0,0.9,0,1.8,0.1,2.7c1.3,0.9,2.8,1.6,4.2,2.2c0.6-0.3,1.2-0.6,1.9-0.9c0.5-0.3,1.1-0.6,1.5-1c0.3-1.5,0.4-3.4,0.2-5.4
				c-0.1-0.1-0.2-0.1-0.2-0.2c-0.5-0.4-1.1-0.7-1.7-1C11.5,6,11,5.7,10.5,5.5C10.3,5.4,10,5.3,9.7,5.2L9.7,5.2z"/>
		</g>
		<g>
			<path class="st0" d="M5.2,4.8c0.3,0,0.7,0,1.1,0.1c-0.2,0.6-0.4,1.3-0.5,2c-1,0.7-1.8,1.5-2.5,2.3C2.2,7.9,1.9,6.8,2.3,6
				C2.7,5.2,3.7,4.8,5.2,4.8 M5.2,4.3c-1.6,0-2.8,0.5-3.3,1.4c-0.6,1.1,0,2.7,1.4,4.3c0.7-1,1.8-2,3-2.8c0.2-1,0.4-1.9,0.7-2.7
				C6.4,4.4,5.8,4.3,5.2,4.3L5.2,4.3z"/>
		</g>
		<g>
			<path class="st0" d="M16.8,10.6c1,1.3,1.3,2.5,0.9,3.3c-0.4,0.7-1.4,1.2-2.9,1.2c-0.1,0-0.1,0-0.2,0c0.2-0.8,0.3-1.7,0.4-2.7
				C15.7,11.8,16.3,11.2,16.8,10.6 M16.8,9.8c-0.6,0.8-1.3,1.5-2.2,2.3c-0.1,1.4-0.3,2.6-0.6,3.4c0.3,0,0.6,0,0.8,0
				c1.6,0,2.8-0.5,3.3-1.4C18.7,13,18.1,11.4,16.8,9.8L16.8,9.8z"/>
		</g>
		<g>
			<path class="st0" d="M10.2,1.7L10.2,1.7c1.2,0,2,1.5,2.2,2c0,0,0,0,0,0.1c-0.6,0.1-1.2,0.3-1.9,0.5C9.8,4,8.9,3.7,8,3.4
				C8.7,2.3,9.4,1.7,10.2,1.7 M10.2,1.2c-1.1,0-2.1,1-2.9,2.5c1.2,0.3,2.3,0.7,3.2,1.1c0.9-0.3,1.8-0.6,2.6-0.7
				C13,3.9,13,3.7,12.9,3.5C12.8,3.4,11.9,1.2,10.2,1.2C10.2,1.2,10.2,1.2,10.2,1.2L10.2,1.2z"/>
		</g>
		<g>
			<path class="st0" d="M9.4,15.6c1.1,0.5,1.9,0.8,2.5,1c-0.6,1-1.4,1.6-2.1,1.6c0,0,0,0,0,0c-0.8,0-1.6-0.8-2.2-2.1
				C8.1,16,8.8,15.8,9.4,15.6 M9.4,15c-0.9,0.3-1.7,0.6-2.5,0.7c0.7,1.8,1.7,2.9,2.9,3c0,0,0,0,0.1,0c1.1,0,2.1-0.9,2.8-2.4
				C11.9,16.1,10.7,15.7,9.4,15L9.4,15z"/>
		</g>
		<g>
			<path class="st0" d="M3.2,11c0.7,0.9,1.5,1.7,2.5,2.4c0.1,0.7,0.3,1.3,0.5,1.9c-0.3,0-0.6,0-0.8,0c-1.4,0-2.4-0.4-2.8-1.1
				C2.1,13.4,2.3,12.3,3.2,11 M3.2,10.1c-1.2,1.6-1.7,3.3-1,4.4c0.5,0.9,1.7,1.4,3.2,1.4c0.5,0,1,0,1.5-0.1
				c-0.3-0.8-0.5-1.6-0.7-2.6C5,12.3,4,11.3,3.2,10.1L3.2,10.1z"/>
		</g>
		<g>
			<path class="st0" d="M14.7,4.5c1.4,0,2.4,0.4,2.8,1.1c0.5,0.8,0.2,2-0.6,3.3c-0.4-0.6-1.1-1.4-2.1-2.2C14.5,6,14.2,5.2,14,4.5
				C14.2,4.5,14.4,4.5,14.7,4.5 M14.7,4c-0.5,0-0.9,0-1.4,0.1C13.7,5,14,6,14.2,7c1.5,1.2,2.3,2.3,2.6,2.8c1.3-1.7,1.7-3.3,1-4.4
				C17.3,4.5,16.2,4,14.7,4L14.7,4z"/>
		</g>
	</g>
	<g>
		<g>
			<path class="st0" d="M14.8,11.5c0-1.1,0-2.3-0.1-3.3c0.8,0.6,1.3,1.2,1.7,1.5c0,0,0.1,0.1,0.1,0.1C16,10.4,15.4,11,14.8,11.5z"/>
			<path class="st0" d="M15,8.8c0.5,0.4,0.9,0.8,1.1,1.1c-0.3,0.4-0.7,0.7-1,1.1C15.1,10.2,15.1,9.5,15,8.8 M14.3,7.7
				c0.3,1.5,0.3,3.1,0.2,4.4c0.9-0.7,1.7-1.5,2.2-2.3c-0.1-0.1-0.1-0.2-0.2-0.3C16,9,15.3,8.3,14.3,7.7L14.3,7.7z"/>
		</g>
		<g>
			<path class="st0" d="M7,15.4c-0.2-0.5-0.4-1.1-0.5-1.8C7.2,14.1,8,14.6,8.7,15C8.2,15.2,7.6,15.3,7,15.4z"/>
			<path class="st0" d="M6.9,14.2c0.4,0.2,0.8,0.5,1.2,0.7c-0.3,0.1-0.6,0.2-0.9,0.2C7.1,14.8,7,14.5,6.9,14.2 M6.2,13.1
				c0.2,1,0.4,1.8,0.7,2.6c0.8-0.1,1.7-0.4,2.5-0.7C8.4,14.5,7.2,13.9,6.2,13.1L6.2,13.1z"/>
		</g>
		<g>
			<path class="st0" d="M12.9,15.1c-0.6-0.1-1.2-0.3-1.8-0.4c0,0-0.1,0-0.1,0c0.5-0.2,0.9-0.5,1.3-0.7c0.4-0.2,0.7-0.4,1.1-0.7
				C13.2,14.1,13,14.8,12.9,15.1L12.9,15.1z"/>
			<path class="st0" d="M13,13.8c-0.1,0.4-0.2,0.7-0.3,1c-0.3-0.1-0.7-0.2-1-0.3c0.3-0.1,0.5-0.3,0.8-0.4C12.6,14,12.8,13.9,13,13.8
				 M13.7,12.7c-0.5,0.3-1,0.7-1.5,1c-0.6,0.4-1.2,0.7-1.9,0.9c0.3,0.1,0.5,0.2,0.7,0.2c0.7,0.2,1.3,0.4,1.9,0.5c0,0,0,0,0.1,0
				c0,0,0,0,0,0c0-0.1,0.1-0.2,0.1-0.2C13.3,14.6,13.5,13.8,13.7,12.7L13.7,12.7z"/>
		</g>
		<g>
			<path class="st0" d="M6.6,6.6C6.7,6,6.9,5.3,7.1,4.8C7.7,4.9,8.3,5,9,5.2C8.6,5.5,8.1,5.7,7.7,5.9C7.3,6.2,6.9,6.4,6.6,6.6z"/>
			<path class="st0" d="M7.3,5c0.3,0.1,0.7,0.2,1,0.3C8.1,5.4,7.8,5.6,7.6,5.7C7.4,5.8,7.2,5.9,7,6.1C7.1,5.7,7.2,5.4,7.3,5 M7,4.5
				C6.7,5.3,6.4,6.2,6.2,7.2c0.5-0.4,1-0.7,1.6-1c0.6-0.4,1.2-0.7,1.9-0.9C8.8,4.9,7.9,4.7,7,4.5C7,4.5,7,4.5,7,4.5L7,4.5z"/>
		</g>
		<g>
			<path class="st0" d="M5.8,12c-0.3-0.2-0.5-0.4-0.8-0.6l-0.1-0.1c-0.5-0.4-0.9-0.8-1.3-1.2C4.2,9.2,5,8.5,5.9,7.7
				C5.8,8.4,5.7,9.1,5.7,9.8C5.7,10.5,5.7,11.3,5.8,12z"/>
			<path class="st0" d="M5.6,8.3c-0.1,0.5-0.1,1-0.1,1.5c0,0.6,0,1.1,0,1.6c-0.1-0.1-0.2-0.2-0.4-0.3L5,11c-0.4-0.3-0.8-0.7-1.1-1
				C4.4,9.4,4.9,8.9,5.6,8.3 M6.2,7.2C5,8.1,4,9,3.2,10c0.4,0.5,0.9,0.9,1.4,1.4c0,0,0.1,0.1,0.1,0.1c0,0,0,0,0,0
				c0.4,0.3,0.8,0.6,1.2,0.9C6,11.6,5.9,10.7,6,9.8C6,8.9,6.1,8,6.2,7.2L6.2,7.2z"/>
		</g>
		<g>
			<path class="st0" d="M13.1,5.9c-0.5-0.4-1.2-0.7-1.9-1c0.6-0.2,1.2-0.3,1.7-0.5c0.2,0.5,0.4,1.1,0.5,1.7
				C13.3,6.1,13.2,6,13.1,5.9z"/>
			<path class="st0" d="M12.8,4.7C12.9,5,13,5.3,13.1,5.6c-0.4-0.2-0.7-0.4-1.2-0.6C12.2,4.9,12.5,4.8,12.8,4.7 M13.1,4.1
				c-0.8,0.1-1.7,0.4-2.6,0.7c0.9,0.4,1.7,0.8,2.4,1.3c0.3,0.2,0.6,0.4,0.8,0.6C13.7,5.9,13.4,5,13.1,4.1L13.1,4.1z"/>
		</g>
	</g>
</g>
</svg>
